solid ascii
  facet normal -2.724757e-001 -9.621627e-001 0.000000e+000
    outer loop
      vertex   -1.566205e+000 -2.264230e+000 0.000000e+000
      vertex   -5.924102e-001 -2.540000e+000 0.000000e+000
      vertex   -1.566205e+000 -2.264230e+000 6.985000e+000
    endloop
  endfacet
  facet normal -2.724757e-001 -9.621627e-001 0.000000e+000
    outer loop
      vertex   -1.566205e+000 -2.264230e+000 6.985000e+000
      vertex   -5.924102e-001 -2.540000e+000 0.000000e+000
      vertex   -5.924102e-001 -2.540000e+000 6.985000e+000
    endloop
  endfacet
  facet normal 0.000000e+000 -1.000000e+000 0.000000e+000
    outer loop
      vertex   -2.540000e+000 -2.264230e+000 0.000000e+000
      vertex   -1.566205e+000 -2.264230e+000 0.000000e+000
      vertex   -2.540000e+000 -2.264230e+000 6.985000e+000
    endloop
  endfacet
  facet normal 0.000000e+000 -1.000000e+000 0.000000e+000
    outer loop
      vertex   -2.540000e+000 -2.264230e+000 6.985000e+000
      vertex   -1.566205e+000 -2.264230e+000 0.000000e+000
      vertex   -1.566205e+000 -2.264230e+000 6.985000e+000
    endloop
  endfacet
  facet normal 1.000000e+000 0.000000e+000 -0.000000e+000
    outer loop
      vertex   -2.540000e+000 -6.007100e+000 0.000000e+000
      vertex   -2.540000e+000 -2.264230e+000 0.000000e+000
      vertex   -2.540000e+000 -6.007100e+000 6.985000e+000
    endloop
  endfacet
  facet normal 1.000000e+000 -0.000000e+000 0.000000e+000
    outer loop
      vertex   -2.540000e+000 -6.007100e+000 6.985000e+000
      vertex   -2.540000e+000 -2.264230e+000 0.000000e+000
      vertex   -2.540000e+000 -2.264230e+000 6.985000e+000
    endloop
  endfacet
  facet normal 0.000000e+000 1.000000e+000 -0.000000e+000
    outer loop
      vertex   -6.350000e-001 -6.007100e+000 0.000000e+000
      vertex   -2.540000e+000 -6.007100e+000 0.000000e+000
      vertex   -6.350000e-001 -6.007100e+000 6.985000e+000
    endloop
  endfacet
  facet normal 0.000000e+000 1.000000e+000 -0.000000e+000
    outer loop
      vertex   -6.350000e-001 -6.007100e+000 6.985000e+000
      vertex   -2.540000e+000 -6.007100e+000 0.000000e+000
      vertex   -2.540000e+000 -6.007100e+000 6.985000e+000
    endloop
  endfacet
  facet normal 9.961947e-001 8.715574e-002 -3.488407e-017
    outer loop
      vertex   -9.647077e-003 -6.531833e+000 0.000000e+000
      vertex   -9.647077e-003 -6.531833e+000 2.328333e+000
      vertex   0.000000e+000 -6.642100e+000 0.000000e+000
    endloop
  endfacet
  facet normal 9.659258e-001 2.588190e-001 -3.365545e-017
    outer loop
      vertex   -9.647077e-003 -6.531833e+000 0.000000e+000
      vertex   -3.829519e-002 -6.424917e+000 2.328333e+000
      vertex   -9.647077e-003 -6.531833e+000 2.328333e+000
    endloop
  endfacet
  facet normal 9.659258e-001 2.588190e-001 2.590785e-017
    outer loop
      vertex   -9.647077e-003 -6.531833e+000 0.000000e+000
      vertex   -3.829519e-002 -6.424917e+000 0.000000e+000
      vertex   -3.829519e-002 -6.424917e+000 2.328333e+000
    endloop
  endfacet
  facet normal 9.063078e-001 4.226183e-001 2.430879e-017
    outer loop
      vertex   -3.829519e-002 -6.424917e+000 2.328333e+000
      vertex   -3.829519e-002 -6.424917e+000 0.000000e+000
      vertex   -8.507387e-002 -6.324600e+000 2.328333e+000
    endloop
  endfacet
  facet normal 8.191520e-001 5.735764e-001 0.000000e+000
    outer loop
      vertex   -8.507387e-002 -6.324600e+000 4.656667e+000
      vertex   -8.507387e-002 -6.324600e+000 2.328333e+000
      vertex   -1.485618e-001 -6.233930e+000 4.656667e+000
    endloop
  endfacet
  facet normal 7.071068e-001 7.071068e-001 5.057563e-017
    outer loop
      vertex   -1.485618e-001 -6.233930e+000 6.985000e+000
      vertex   -1.485618e-001 -6.233930e+000 4.656667e+000
      vertex   -2.268299e-001 -6.155662e+000 6.985000e+000
    endloop
  endfacet
  facet normal 8.191520e-001 5.735764e-001 6.057981e-017
    outer loop
      vertex   -1.485618e-001 -6.233930e+000 6.985000e+000
      vertex   -8.507387e-002 -6.324600e+000 4.656667e+000
      vertex   -1.485618e-001 -6.233930e+000 4.656667e+000
    endloop
  endfacet
  facet normal 8.191520e-001 5.735764e-001 0.000000e+000
    outer loop
      vertex   -1.485618e-001 -6.233930e+000 6.985000e+000
      vertex   -8.507387e-002 -6.324600e+000 6.985000e+000
      vertex   -8.507387e-002 -6.324600e+000 4.656667e+000
    endloop
  endfacet
  facet normal 9.063078e-001 4.226183e-001 -0.000000e+000
    outer loop
      vertex   -8.507387e-002 -6.324600e+000 4.656667e+000
      vertex   -8.507387e-002 -6.324600e+000 6.985000e+000
      vertex   -3.829519e-002 -6.424917e+000 4.656667e+000
    endloop
  endfacet
  facet normal 9.659258e-001 2.588190e-001 -0.000000e+000
    outer loop
      vertex   -3.829519e-002 -6.424917e+000 2.328333e+000
      vertex   -3.829519e-002 -6.424917e+000 4.656667e+000
      vertex   -9.647077e-003 -6.531833e+000 2.328333e+000
    endloop
  endfacet
  facet normal 9.063078e-001 4.226183e-001 0.000000e+000
    outer loop
      vertex   -3.829519e-002 -6.424917e+000 2.328333e+000
      vertex   -8.507387e-002 -6.324600e+000 4.656667e+000
      vertex   -3.829519e-002 -6.424917e+000 4.656667e+000
    endloop
  endfacet
  facet normal 9.063078e-001 4.226183e-001 -0.000000e+000
    outer loop
      vertex   -3.829519e-002 -6.424917e+000 2.328333e+000
      vertex   -8.507387e-002 -6.324600e+000 2.328333e+000
      vertex   -8.507387e-002 -6.324600e+000 4.656667e+000
    endloop
  endfacet
  facet normal 9.063078e-001 4.226183e-001 -0.000000e+000
    outer loop
      vertex   -3.829519e-002 -6.424917e+000 0.000000e+000
      vertex   -8.507387e-002 -6.324600e+000 0.000000e+000
      vertex   -8.507387e-002 -6.324600e+000 2.328333e+000
    endloop
  endfacet
  facet normal 8.191520e-001 5.735764e-001 0.000000e+000
    outer loop
      vertex   -8.507387e-002 -6.324600e+000 2.328333e+000
      vertex   -8.507387e-002 -6.324600e+000 0.000000e+000
      vertex   -1.485618e-001 -6.233930e+000 2.328333e+000
    endloop
  endfacet
  facet normal 7.071068e-001 7.071068e-001 0.000000e+000
    outer loop
      vertex   -1.485618e-001 -6.233930e+000 4.656667e+000
      vertex   -1.485618e-001 -6.233930e+000 2.328333e+000
      vertex   -2.268299e-001 -6.155662e+000 4.656667e+000
    endloop
  endfacet
  facet normal 5.735764e-001 8.191520e-001 6.837485e-018
    outer loop
      vertex   -2.268299e-001 -6.155662e+000 6.985000e+000
      vertex   -2.268299e-001 -6.155662e+000 4.656667e+000
      vertex   -3.175000e-001 -6.092174e+000 6.985000e+000
    endloop
  endfacet
  facet normal 7.071068e-001 7.071068e-001 6.731090e-018
    outer loop
      vertex   -2.268299e-001 -6.155662e+000 6.985000e+000
      vertex   -1.485618e-001 -6.233930e+000 4.656667e+000
      vertex   -2.268299e-001 -6.155662e+000 4.656667e+000
    endloop
  endfacet
  facet normal 8.191520e-001 5.735764e-001 -5.858964e-017
    outer loop
      vertex   -8.507387e-002 -6.324600e+000 0.000000e+000
      vertex   -1.485618e-001 -6.233930e+000 0.000000e+000
      vertex   -1.485618e-001 -6.233930e+000 2.328333e+000
    endloop
  endfacet
  facet normal 7.071068e-001 7.071068e-001 -5.057563e-017
    outer loop
      vertex   -1.485618e-001 -6.233930e+000 2.328333e+000
      vertex   -1.485618e-001 -6.233930e+000 0.000000e+000
      vertex   -2.268299e-001 -6.155662e+000 2.328333e+000
    endloop
  endfacet
  facet normal 5.735764e-001 8.191520e-001 0.000000e+000
    outer loop
      vertex   -2.268299e-001 -6.155662e+000 4.656667e+000
      vertex   -2.268299e-001 -6.155662e+000 2.328333e+000
      vertex   -3.175000e-001 -6.092174e+000 4.656667e+000
    endloop
  endfacet
  facet normal 4.226183e-001 9.063078e-001 0.000000e+000
    outer loop
      vertex   -3.175000e-001 -6.092174e+000 6.985000e+000
      vertex   -3.175000e-001 -6.092174e+000 4.656667e+000
      vertex   -4.178172e-001 -6.045395e+000 6.985000e+000
    endloop
  endfacet
  facet normal 5.735764e-001 8.191520e-001 0.000000e+000
    outer loop
      vertex   -3.175000e-001 -6.092174e+000 6.985000e+000
      vertex   -2.268299e-001 -6.155662e+000 4.656667e+000
      vertex   -3.175000e-001 -6.092174e+000 4.656667e+000
    endloop
  endfacet
  facet normal 7.071068e-001 7.071068e-001 -8.429272e-018
    outer loop
      vertex   -1.485618e-001 -6.233930e+000 0.000000e+000
      vertex   -2.268299e-001 -6.155662e+000 0.000000e+000
      vertex   -2.268299e-001 -6.155662e+000 2.328333e+000
    endloop
  endfacet
  facet normal 5.735764e-001 8.191520e-001 -6.837485e-018
    outer loop
      vertex   -2.268299e-001 -6.155662e+000 2.328333e+000
      vertex   -2.268299e-001 -6.155662e+000 0.000000e+000
      vertex   -3.175000e-001 -6.092174e+000 2.328333e+000
    endloop
  endfacet
  facet normal 4.226183e-001 9.063078e-001 0.000000e+000
    outer loop
      vertex   -3.175000e-001 -6.092174e+000 4.656667e+000
      vertex   -3.175000e-001 -6.092174e+000 2.328333e+000
      vertex   -4.178172e-001 -6.045395e+000 4.656667e+000
    endloop
  endfacet
  facet normal 2.588190e-001 9.659258e-001 -6.170656e-018
    outer loop
      vertex   -4.178172e-001 -6.045395e+000 6.985000e+000
      vertex   -4.178172e-001 -6.045395e+000 4.656667e+000
      vertex   -5.247334e-001 -6.016747e+000 6.985000e+000
    endloop
  endfacet
  facet normal 4.226183e-001 9.063078e-001 -1.009663e-017
    outer loop
      vertex   -4.178172e-001 -6.045395e+000 6.985000e+000
      vertex   -3.175000e-001 -6.092174e+000 4.656667e+000
      vertex   -4.178172e-001 -6.045395e+000 4.656667e+000
    endloop
  endfacet
  facet normal 5.735764e-001 8.191520e-001 -0.000000e+000
    outer loop
      vertex   -2.268299e-001 -6.155662e+000 0.000000e+000
      vertex   -3.175000e-001 -6.092174e+000 0.000000e+000
      vertex   -3.175000e-001 -6.092174e+000 2.328333e+000
    endloop
  endfacet
  facet normal 4.226183e-001 9.063078e-001 0.000000e+000
    outer loop
      vertex   -3.175000e-001 -6.092174e+000 2.328333e+000
      vertex   -3.175000e-001 -6.092174e+000 0.000000e+000
      vertex   -4.178172e-001 -6.045395e+000 2.328333e+000
    endloop
  endfacet
  facet normal 2.588190e-001 9.659258e-001 0.000000e+000
    outer loop
      vertex   -4.178172e-001 -6.045395e+000 4.656667e+000
      vertex   -4.178172e-001 -6.045395e+000 2.328333e+000
      vertex   -5.247334e-001 -6.016747e+000 4.656667e+000
    endloop
  endfacet
  facet normal 8.715574e-002 9.961947e-001 0.000000e+000
    outer loop
      vertex   -5.247334e-001 -6.016747e+000 6.985000e+000
      vertex   -5.247334e-001 -6.016747e+000 4.656667e+000
      vertex   -6.350000e-001 -6.007100e+000 6.985000e+000
    endloop
  endfacet
  facet normal 2.588190e-001 9.659258e-001 0.000000e+000
    outer loop
      vertex   -5.247334e-001 -6.016747e+000 6.985000e+000
      vertex   -4.178172e-001 -6.045395e+000 4.656667e+000
      vertex   -5.247334e-001 -6.016747e+000 4.656667e+000
    endloop
  endfacet
  facet normal 4.226183e-001 9.063078e-001 1.007589e-017
    outer loop
      vertex   -3.175000e-001 -6.092174e+000 0.000000e+000
      vertex   -4.178172e-001 -6.045395e+000 0.000000e+000
      vertex   -4.178172e-001 -6.045395e+000 2.328333e+000
    endloop
  endfacet
  facet normal 2.588190e-001 9.659258e-001 6.170656e-018
    outer loop
      vertex   -4.178172e-001 -6.045395e+000 2.328333e+000
      vertex   -4.178172e-001 -6.045395e+000 0.000000e+000
      vertex   -5.247334e-001 -6.016747e+000 2.328333e+000
    endloop
  endfacet
  facet normal 8.715574e-002 9.961947e-001 0.000000e+000
    outer loop
      vertex   -5.247334e-001 -6.016747e+000 4.656667e+000
      vertex   -5.247334e-001 -6.016747e+000 2.328333e+000
      vertex   -6.350000e-001 -6.007100e+000 6.985000e+000
    endloop
  endfacet
  facet normal 2.588190e-001 9.659258e-001 0.000000e+000
    outer loop
      vertex   -5.247334e-001 -6.016747e+000 4.656667e+000
      vertex   -4.178172e-001 -6.045395e+000 2.328333e+000
      vertex   -5.247334e-001 -6.016747e+000 2.328333e+000
    endloop
  endfacet
  facet normal 2.588190e-001 9.659258e-001 -0.000000e+000
    outer loop
      vertex   -4.178172e-001 -6.045395e+000 0.000000e+000
      vertex   -5.247334e-001 -6.016747e+000 0.000000e+000
      vertex   -5.247334e-001 -6.016747e+000 2.328333e+000
    endloop
  endfacet
  facet normal 8.715574e-002 9.961947e-001 0.000000e+000
    outer loop
      vertex   -5.247334e-001 -6.016747e+000 2.328333e+000
      vertex   -5.247334e-001 -6.016747e+000 0.000000e+000
      vertex   -6.350000e-001 -6.007100e+000 0.000000e+000
    endloop
  endfacet
  facet normal 8.715574e-002 9.961947e-001 0.000000e+000
    outer loop
      vertex   -6.350000e-001 -6.007100e+000 6.985000e+000
      vertex   -5.247334e-001 -6.016747e+000 2.328333e+000
      vertex   -6.350000e-001 -6.007100e+000 0.000000e+000
    endloop
  endfacet
  facet normal 9.063078e-001 4.226183e-001 -2.430879e-017
    outer loop
      vertex   -8.507387e-002 -6.324600e+000 6.985000e+000
      vertex   -3.829519e-002 -6.424917e+000 6.985000e+000
      vertex   -3.829519e-002 -6.424917e+000 4.656667e+000
    endloop
  endfacet
  facet normal 9.659258e-001 2.588190e-001 -2.590785e-017
    outer loop
      vertex   -3.829519e-002 -6.424917e+000 4.656667e+000
      vertex   -3.829519e-002 -6.424917e+000 6.985000e+000
      vertex   -9.647077e-003 -6.531833e+000 4.656667e+000
    endloop
  endfacet
  facet normal 9.961947e-001 8.715574e-002 -0.000000e+000
    outer loop
      vertex   -9.647077e-003 -6.531833e+000 2.328333e+000
      vertex   -9.647077e-003 -6.531833e+000 4.656667e+000
      vertex   0.000000e+000 -6.642100e+000 0.000000e+000
    endloop
  endfacet
  facet normal 9.659258e-001 2.588190e-001 0.000000e+000
    outer loop
      vertex   -9.647077e-003 -6.531833e+000 2.328333e+000
      vertex   -3.829519e-002 -6.424917e+000 4.656667e+000
      vertex   -9.647077e-003 -6.531833e+000 4.656667e+000
    endloop
  endfacet
  facet normal 9.659258e-001 2.588190e-001 3.382414e-017
    outer loop
      vertex   -3.829519e-002 -6.424917e+000 6.985000e+000
      vertex   -9.647077e-003 -6.531833e+000 6.985000e+000
      vertex   -9.647077e-003 -6.531833e+000 4.656667e+000
    endloop
  endfacet
  facet normal 9.961947e-001 8.715574e-002 3.488407e-017
    outer loop
      vertex   -9.647077e-003 -6.531833e+000 4.656667e+000
      vertex   -9.647077e-003 -6.531833e+000 6.985000e+000
      vertex   0.000000e+000 -6.642100e+000 6.985000e+000
    endloop
  endfacet
  facet normal 9.961947e-001 8.715574e-002 0.000000e+000
    outer loop
      vertex   0.000000e+000 -6.642100e+000 0.000000e+000
      vertex   -9.647077e-003 -6.531833e+000 4.656667e+000
      vertex   0.000000e+000 -6.642100e+000 6.985000e+000
    endloop
  endfacet
  facet normal 8.191520e-001 5.735764e-001 0.000000e+000
    outer loop
      vertex   -1.485618e-001 -6.233930e+000 4.656667e+000
      vertex   -8.507387e-002 -6.324600e+000 2.328333e+000
      vertex   -1.485618e-001 -6.233930e+000 2.328333e+000
    endloop
  endfacet
  facet normal 7.071068e-001 7.071068e-001 0.000000e+000
    outer loop
      vertex   -2.268299e-001 -6.155662e+000 4.656667e+000
      vertex   -1.485618e-001 -6.233930e+000 2.328333e+000
      vertex   -2.268299e-001 -6.155662e+000 2.328333e+000
    endloop
  endfacet
  facet normal 5.735764e-001 8.191520e-001 0.000000e+000
    outer loop
      vertex   -3.175000e-001 -6.092174e+000 4.656667e+000
      vertex   -2.268299e-001 -6.155662e+000 2.328333e+000
      vertex   -3.175000e-001 -6.092174e+000 2.328333e+000
    endloop
  endfacet
  facet normal 4.226183e-001 9.063078e-001 0.000000e+000
    outer loop
      vertex   -4.178172e-001 -6.045395e+000 4.656667e+000
      vertex   -3.175000e-001 -6.092174e+000 2.328333e+000
      vertex   -4.178172e-001 -6.045395e+000 2.328333e+000
    endloop
  endfacet
  facet normal 1.000000e+000 0.000000e+000 -0.000000e+000
    outer loop
      vertex   0.000000e+000 -7.607300e+000 0.000000e+000
      vertex   0.000000e+000 -6.642100e+000 0.000000e+000
      vertex   0.000000e+000 -7.607300e+000 6.985000e+000
    endloop
  endfacet
  facet normal 1.000000e+000 -0.000000e+000 0.000000e+000
    outer loop
      vertex   0.000000e+000 -7.607300e+000 6.985000e+000
      vertex   0.000000e+000 -6.642100e+000 0.000000e+000
      vertex   0.000000e+000 -6.642100e+000 6.985000e+000
    endloop
  endfacet
  facet normal 0.000000e+000 -1.000000e+000 -1.271551e-016
    outer loop
      vertex   -6.985000e+000 -7.607300e+000 0.000000e+000
      vertex   0.000000e+000 -7.607300e+000 0.000000e+000
      vertex   -6.985000e+000 -7.607300e+000 6.985000e+000
    endloop
  endfacet
  facet normal 0.000000e+000 -1.000000e+000 -1.271551e-016
    outer loop
      vertex   -6.985000e+000 -7.607300e+000 6.985000e+000
      vertex   0.000000e+000 -7.607300e+000 0.000000e+000
      vertex   0.000000e+000 -7.607300e+000 6.985000e+000
    endloop
  endfacet
  facet normal -1.000000e+000 0.000000e+000 0.000000e+000
    outer loop
      vertex   -6.985000e+000 -3.175000e+000 0.000000e+000
      vertex   -6.985000e+000 -7.607300e+000 0.000000e+000
      vertex   -6.985000e+000 -3.175000e+000 6.985000e+000
    endloop
  endfacet
  facet normal -1.000000e+000 -0.000000e+000 0.000000e+000
    outer loop
      vertex   -6.985000e+000 -3.175000e+000 6.985000e+000
      vertex   -6.985000e+000 -7.607300e+000 0.000000e+000
      vertex   -6.985000e+000 -7.607300e+000 6.985000e+000
    endloop
  endfacet
  facet normal -2.094242e-002 9.997807e-001 0.000000e+000
    outer loop
      vertex   -3.810000e+000 -5.551115e-016 6.985000e+000
      vertex   -3.810000e+000 -5.551115e-016 0.000000e+000
      vertex   -3.942955e+000 -2.785014e-003 3.492500e+000
    endloop
  endfacet
  facet normal -8.367782e-002 9.964925e-001 -7.968746e-004
    outer loop
      vertex   -4.072189e+000 -1.084423e-002 6.985000e+000
      vertex   -3.942955e+000 -2.785014e-003 3.492500e+000
      vertex   -4.207933e+000 -2.503582e-002 3.492500e+000
    endloop
  endfacet
  facet normal -1.667687e-001 9.859957e-001 -7.952177e-004
    outer loop
      vertex   -4.332588e+000 -4.330286e-002 6.985000e+000
      vertex   -4.207933e+000 -2.503582e-002 3.492500e+000
      vertex   -4.470120e+000 -6.938137e-002 3.492500e+000
    endloop
  endfacet
  facet normal -2.486898e-001 9.685829e-001 -7.924561e-004
    outer loop
      vertex   -4.589416e+000 -9.715416e-002 6.985000e+000
      vertex   -4.470120e+000 -6.938137e-002 3.492500e+000
      vertex   -4.727676e+000 -1.355106e-001 3.492500e+000
    endloop
  endfacet
  facet normal -3.288665e-001 9.443761e-001 -7.885899e-004
    outer loop
      vertex   -4.840921e+000 -1.720303e-001 6.985000e+000
      vertex   -4.727676e+000 -1.355106e-001 3.492500e+000
      vertex   -4.978795e+000 -2.229597e-001 3.492500e+000
    endloop
  endfacet
  facet normal -4.067365e-001 9.135452e-001 -7.836191e-004
    outer loop
      vertex   -5.085383e+000 -2.674197e-001 6.985000e+000
      vertex   -4.978795e+000 -2.229597e-001 3.492500e+000
      vertex   -5.221717e+000 -3.311152e-001 3.492500e+000
    endloop
  endfacet
  facet normal -4.817535e-001 8.763064e-001 -7.775437e-004
    outer loop
      vertex   -5.321133e+000 -3.826708e-001 6.985000e+000
      vertex   -5.221717e+000 -3.311152e-001 3.492500e+000
      vertex   -5.454736e+000 -4.592185e-001 3.492500e+000
    endloop
  endfacet
  facet normal -5.533914e-001 8.329210e-001 -7.703636e-004
    outer loop
      vertex   -5.546560e+000 -5.169964e-001 6.985000e+000
      vertex   -5.454736e+000 -4.592185e-001 3.492500e+000
      vertex   -5.676218e+000 -6.063710e-001 3.492500e+000
    endloop
  endfacet
  facet normal -6.211476e-001 7.836932e-001 -7.620790e-004
    outer loop
      vertex   -5.760125e+000 -6.694789e-001 6.985000e+000
      vertex   -5.676218e+000 -6.063710e-001 3.492500e+000
      vertex   -5.884610e+000 -7.715407e-001 3.492500e+000
    endloop
  endfacet
  facet normal -6.845469e-001 7.289684e-001 -7.526898e-004
    outer loop
      vertex   -5.960369e+000 -8.390766e-001 6.985000e+000
      vertex   -5.884610e+000 -7.715407e-001 3.492500e+000
      vertex   -6.078451e+000 -9.535689e-001 3.492500e+000
    endloop
  endfacet
  facet normal -7.431446e-001 6.691304e-001 -7.421960e-004
    outer loop
      vertex   -6.145923e+000 -1.024631e+000 6.985000e+000
      vertex   -6.078451e+000 -9.535689e-001 3.492500e+000
      vertex   -6.256380e+000 -1.151179e+000 3.492500e+000
    endloop
  endfacet
  facet normal -7.965297e-001 6.045990e-001 -7.305976e-004
    outer loop
      vertex   -6.315521e+000 -1.224875e+000 6.985000e+000
      vertex   -6.256380e+000 -1.151179e+000 3.492500e+000
      vertex   -6.417149e+000 -1.362984e+000 3.492500e+000
    endloop
  endfacet
  facet normal -8.443277e-001 5.358267e-001 -7.178947e-004
    outer loop
      vertex   -6.468004e+000 -1.438440e+000 6.985000e+000
      vertex   -6.417149e+000 -1.362984e+000 3.492500e+000
      vertex   -6.559631e+000 -1.587500e+000 3.492500e+000
    endloop
  endfacet
  facet normal -8.862034e-001 4.632959e-001 -7.040873e-004
    outer loop
      vertex   -6.602329e+000 -1.663867e+000 6.985000e+000
      vertex   -6.559631e+000 -1.587500e+000 3.492500e+000
      vertex   -6.682826e+000 -1.823151e+000 3.492500e+000
    endloop
  endfacet
  facet normal -9.218629e-001 3.875155e-001 -6.891753e-004
    outer loop
      vertex   -6.717580e+000 -1.899617e+000 6.985000e+000
      vertex   -6.682826e+000 -1.823151e+000 3.492500e+000
      vertex   -6.785870e+000 -2.068284e+000 3.492500e+000
    endloop
  endfacet
  facet normal -9.510563e-001 3.090169e-001 -6.731588e-004
    outer loop
      vertex   -6.812970e+000 -2.144079e+000 6.985000e+000
      vertex   -6.785870e+000 -2.068284e+000 3.492500e+000
      vertex   -6.868041e+000 -2.321180e+000 3.492500e+000
    endloop
  endfacet
  facet normal -9.735787e-001 2.283508e-001 -6.560379e-004
    outer loop
      vertex   -6.887846e+000 -2.395584e+000 6.985000e+000
      vertex   -6.868041e+000 -2.321180e+000 3.492500e+000
      vertex   -6.928762e+000 -2.580064e+000 3.492500e+000
    endloop
  endfacet
  facet normal -9.892721e-001 1.460830e-001 -6.378125e-004
    outer loop
      vertex   -6.941697e+000 -2.652412e+000 6.985000e+000
      vertex   -6.928762e+000 -2.580064e+000 3.492500e+000
      vertex   -6.967607e+000 -2.843122e+000 3.492500e+000
    endloop
  endfacet
  facet normal -9.980265e-001 6.279051e-002 -6.184827e-004
    outer loop
      vertex   -6.974156e+000 -2.912811e+000 6.985000e+000
      vertex   -6.967607e+000 -2.843122e+000 3.492500e+000
      vertex   -6.984304e+000 -3.108508e+000 3.492500e+000
    endloop
  endfacet
  facet normal -9.999452e-001 1.047178e-002 0.000000e+000
    outer loop
      vertex   -6.985000e+000 -3.175000e+000 6.985000e+000
      vertex   -6.984304e+000 -3.108508e+000 3.492500e+000
      vertex   -6.985000e+000 -3.175000e+000 0.000000e+000
    endloop
  endfacet
  facet normal -9.991456e-001 4.132497e-002 5.875597e-004
    outer loop
      vertex   -6.985000e+000 -3.175000e+000 6.985000e+000
      vertex   -6.974156e+000 -2.912811e+000 6.985000e+000
      vertex   -6.984304e+000 -3.108508e+000 3.492500e+000
    endloop
  endfacet
  facet normal -1.236926e-001 9.923203e-001 -7.753403e-004
    outer loop
      vertex   -4.332588e+000 -4.330286e-002 0.000000e+000
      vertex   -4.207933e+000 -2.503582e-002 3.492500e+000
      vertex   -4.072189e+000 -1.084423e-002 0.000000e+000
    endloop
  endfacet
  facet normal -1.667687e-001 9.859957e-001 7.952177e-004
    outer loop
      vertex   -4.332588e+000 -4.330286e-002 0.000000e+000
      vertex   -4.470120e+000 -6.938137e-002 3.492500e+000
      vertex   -4.207933e+000 -2.503582e-002 3.492500e+000
    endloop
  endfacet
  facet normal -2.052153e-001 9.787166e-001 -7.731311e-004
    outer loop
      vertex   -4.332588e+000 -4.330286e-002 0.000000e+000
      vertex   -4.589416e+000 -9.715416e-002 0.000000e+000
      vertex   -4.470120e+000 -6.938137e-002 3.492500e+000
    endloop
  endfacet
  facet normal -2.486898e-001 9.685829e-001 7.924561e-004
    outer loop
      vertex   -4.470120e+000 -6.938137e-002 3.492500e+000
      vertex   -4.589416e+000 -9.715416e-002 0.000000e+000
      vertex   -4.727676e+000 -1.355106e-001 3.492500e+000
    endloop
  endfacet
  facet normal -2.853361e-001 9.584272e-001 -7.698172e-004
    outer loop
      vertex   -4.727676e+000 -1.355106e-001 3.492500e+000
      vertex   -4.589416e+000 -9.715416e-002 0.000000e+000
      vertex   -4.840921e+000 -1.720303e-001 0.000000e+000
    endloop
  endfacet
  facet normal -3.635079e-001 9.315908e-001 -7.653987e-004
    outer loop
      vertex   -4.978795e+000 -2.229597e-001 3.492500e+000
      vertex   -4.840921e+000 -1.720303e-001 0.000000e+000
      vertex   -5.085383e+000 -2.674197e-001 0.000000e+000
    endloop
  endfacet
  facet normal -4.391965e-001 8.983907e-001 -7.598756e-004
    outer loop
      vertex   -5.221717e+000 -3.311152e-001 3.492500e+000
      vertex   -5.085383e+000 -2.674197e-001 0.000000e+000
      vertex   -5.321133e+000 -3.826708e-001 0.000000e+000
    endloop
  endfacet
  facet normal -5.118849e-001 8.590537e-001 -7.532478e-004
    outer loop
      vertex   -5.454736e+000 -4.592185e-001 3.492500e+000
      vertex   -5.321133e+000 -3.826708e-001 0.000000e+000
      vertex   -5.546560e+000 -5.169964e-001 0.000000e+000
    endloop
  endfacet
  facet normal -5.810767e-001 8.138485e-001 -7.455155e-004
    outer loop
      vertex   -5.676218e+000 -6.063710e-001 3.492500e+000
      vertex   -5.546560e+000 -5.169964e-001 0.000000e+000
      vertex   -5.760125e+000 -6.694789e-001 0.000000e+000
    endloop
  endfacet
  facet normal -6.462991e-001 7.630839e-001 -7.366786e-004
    outer loop
      vertex   -5.884610e+000 -7.715407e-001 3.492500e+000
      vertex   -5.760125e+000 -6.694789e-001 0.000000e+000
      vertex   -5.960369e+000 -8.390766e-001 0.000000e+000
    endloop
  endfacet
  facet normal -7.071066e-001 7.071066e-001 -7.267371e-004
    outer loop
      vertex   -6.078451e+000 -9.535689e-001 3.492500e+000
      vertex   -5.960369e+000 -8.390766e-001 0.000000e+000
      vertex   -6.145923e+000 -1.024631e+000 0.000000e+000
    endloop
  endfacet
  facet normal -7.630839e-001 6.462991e-001 -7.156910e-004
    outer loop
      vertex   -6.256380e+000 -1.151179e+000 3.492500e+000
      vertex   -6.145923e+000 -1.024631e+000 0.000000e+000
      vertex   -6.315521e+000 -1.224875e+000 0.000000e+000
    endloop
  endfacet
  facet normal -8.138485e-001 5.810767e-001 -7.035403e-004
    outer loop
      vertex   -6.417149e+000 -1.362984e+000 3.492500e+000
      vertex   -6.315521e+000 -1.224875e+000 0.000000e+000
      vertex   -6.468004e+000 -1.438440e+000 0.000000e+000
    endloop
  endfacet
  facet normal -8.590537e-001 5.118849e-001 -6.902852e-004
    outer loop
      vertex   -6.559631e+000 -1.587500e+000 3.492500e+000
      vertex   -6.468004e+000 -1.438440e+000 0.000000e+000
      vertex   -6.602329e+000 -1.663867e+000 0.000000e+000
    endloop
  endfacet
  facet normal -8.983908e-001 4.391965e-001 -6.759255e-004
    outer loop
      vertex   -6.682826e+000 -1.823151e+000 3.492500e+000
      vertex   -6.602329e+000 -1.663867e+000 0.000000e+000
      vertex   -6.717580e+000 -1.899617e+000 0.000000e+000
    endloop
  endfacet
  facet normal -9.315909e-001 3.635079e-001 -6.604612e-004
    outer loop
      vertex   -6.785870e+000 -2.068284e+000 3.492500e+000
      vertex   -6.717580e+000 -1.899617e+000 0.000000e+000
      vertex   -6.812970e+000 -2.144079e+000 0.000000e+000
    endloop
  endfacet
  facet normal -9.584273e-001 2.853362e-001 -6.438925e-004
    outer loop
      vertex   -6.868041e+000 -2.321180e+000 3.492500e+000
      vertex   -6.812970e+000 -2.144079e+000 0.000000e+000
      vertex   -6.887846e+000 -2.395584e+000 0.000000e+000
    endloop
  endfacet
  facet normal -9.787167e-001 2.052153e-001 -6.262194e-004
    outer loop
      vertex   -6.928762e+000 -2.580064e+000 3.492500e+000
      vertex   -6.887846e+000 -2.395584e+000 0.000000e+000
      vertex   -6.941697e+000 -2.652412e+000 0.000000e+000
    endloop
  endfacet
  facet normal -9.923204e-001 1.236926e-001 -6.074418e-004
    outer loop
      vertex   -6.967607e+000 -2.843122e+000 3.492500e+000
      vertex   -6.941697e+000 -2.652412e+000 0.000000e+000
      vertex   -6.974156e+000 -2.912811e+000 0.000000e+000
    endloop
  endfacet
  facet normal -9.991456e-001 4.132497e-002 -5.875597e-004
    outer loop
      vertex   -6.984304e+000 -3.108508e+000 3.492500e+000
      vertex   -6.974156e+000 -2.912811e+000 0.000000e+000
      vertex   -6.985000e+000 -3.175000e+000 0.000000e+000
    endloop
  endfacet
  facet normal -9.980265e-001 6.279051e-002 6.184827e-004
    outer loop
      vertex   -6.984304e+000 -3.108508e+000 3.492500e+000
      vertex   -6.967607e+000 -2.843122e+000 3.492500e+000
      vertex   -6.974156e+000 -2.912811e+000 0.000000e+000
    endloop
  endfacet
  facet normal -3.288665e-001 9.443761e-001 7.885899e-004
    outer loop
      vertex   -4.727676e+000 -1.355106e-001 3.492500e+000
      vertex   -4.840921e+000 -1.720303e-001 0.000000e+000
      vertex   -4.978795e+000 -2.229597e-001 3.492500e+000
    endloop
  endfacet
  facet normal -4.067365e-001 9.135452e-001 7.836191e-004
    outer loop
      vertex   -4.978795e+000 -2.229597e-001 3.492500e+000
      vertex   -5.085383e+000 -2.674197e-001 0.000000e+000
      vertex   -5.221717e+000 -3.311152e-001 3.492500e+000
    endloop
  endfacet
  facet normal -4.817535e-001 8.763064e-001 7.775437e-004
    outer loop
      vertex   -5.221717e+000 -3.311152e-001 3.492500e+000
      vertex   -5.321133e+000 -3.826708e-001 0.000000e+000
      vertex   -5.454736e+000 -4.592185e-001 3.492500e+000
    endloop
  endfacet
  facet normal -5.533914e-001 8.329210e-001 7.703636e-004
    outer loop
      vertex   -5.454736e+000 -4.592185e-001 3.492500e+000
      vertex   -5.546560e+000 -5.169964e-001 0.000000e+000
      vertex   -5.676218e+000 -6.063710e-001 3.492500e+000
    endloop
  endfacet
  facet normal -6.211476e-001 7.836932e-001 7.620790e-004
    outer loop
      vertex   -5.676218e+000 -6.063710e-001 3.492500e+000
      vertex   -5.760125e+000 -6.694789e-001 0.000000e+000
      vertex   -5.884610e+000 -7.715407e-001 3.492500e+000
    endloop
  endfacet
  facet normal -6.845469e-001 7.289684e-001 7.526898e-004
    outer loop
      vertex   -5.884610e+000 -7.715407e-001 3.492500e+000
      vertex   -5.960369e+000 -8.390766e-001 0.000000e+000
      vertex   -6.078451e+000 -9.535689e-001 3.492500e+000
    endloop
  endfacet
  facet normal -7.431446e-001 6.691304e-001 7.421960e-004
    outer loop
      vertex   -6.078451e+000 -9.535689e-001 3.492500e+000
      vertex   -6.145923e+000 -1.024631e+000 0.000000e+000
      vertex   -6.256380e+000 -1.151179e+000 3.492500e+000
    endloop
  endfacet
  facet normal -7.965297e-001 6.045990e-001 7.305976e-004
    outer loop
      vertex   -6.256380e+000 -1.151179e+000 3.492500e+000
      vertex   -6.315521e+000 -1.224875e+000 0.000000e+000
      vertex   -6.417149e+000 -1.362984e+000 3.492500e+000
    endloop
  endfacet
  facet normal -8.443277e-001 5.358267e-001 7.178947e-004
    outer loop
      vertex   -6.417149e+000 -1.362984e+000 3.492500e+000
      vertex   -6.468004e+000 -1.438440e+000 0.000000e+000
      vertex   -6.559631e+000 -1.587500e+000 3.492500e+000
    endloop
  endfacet
  facet normal -8.862034e-001 4.632959e-001 7.040873e-004
    outer loop
      vertex   -6.559631e+000 -1.587500e+000 3.492500e+000
      vertex   -6.602329e+000 -1.663867e+000 0.000000e+000
      vertex   -6.682826e+000 -1.823151e+000 3.492500e+000
    endloop
  endfacet
  facet normal -9.218629e-001 3.875155e-001 6.891753e-004
    outer loop
      vertex   -6.682826e+000 -1.823151e+000 3.492500e+000
      vertex   -6.717580e+000 -1.899617e+000 0.000000e+000
      vertex   -6.785870e+000 -2.068284e+000 3.492500e+000
    endloop
  endfacet
  facet normal -9.510563e-001 3.090169e-001 6.731588e-004
    outer loop
      vertex   -6.785870e+000 -2.068284e+000 3.492500e+000
      vertex   -6.812970e+000 -2.144079e+000 0.000000e+000
      vertex   -6.868041e+000 -2.321180e+000 3.492500e+000
    endloop
  endfacet
  facet normal -9.735787e-001 2.283508e-001 6.560379e-004
    outer loop
      vertex   -6.868041e+000 -2.321180e+000 3.492500e+000
      vertex   -6.887846e+000 -2.395584e+000 0.000000e+000
      vertex   -6.928762e+000 -2.580064e+000 3.492500e+000
    endloop
  endfacet
  facet normal -9.892721e-001 1.460830e-001 6.378125e-004
    outer loop
      vertex   -6.928762e+000 -2.580064e+000 3.492500e+000
      vertex   -6.941697e+000 -2.652412e+000 0.000000e+000
      vertex   -6.967607e+000 -2.843122e+000 3.492500e+000
    endloop
  endfacet
  facet normal -9.923204e-001 1.236926e-001 6.074418e-004
    outer loop
      vertex   -6.974156e+000 -2.912811e+000 6.985000e+000
      vertex   -6.941697e+000 -2.652412e+000 6.985000e+000
      vertex   -6.967607e+000 -2.843122e+000 3.492500e+000
    endloop
  endfacet
  facet normal -9.787167e-001 2.052153e-001 6.262194e-004
    outer loop
      vertex   -6.941697e+000 -2.652412e+000 6.985000e+000
      vertex   -6.887846e+000 -2.395584e+000 6.985000e+000
      vertex   -6.928762e+000 -2.580064e+000 3.492500e+000
    endloop
  endfacet
  facet normal -9.584273e-001 2.853362e-001 6.438925e-004
    outer loop
      vertex   -6.887846e+000 -2.395584e+000 6.985000e+000
      vertex   -6.812970e+000 -2.144079e+000 6.985000e+000
      vertex   -6.868041e+000 -2.321180e+000 3.492500e+000
    endloop
  endfacet
  facet normal -9.315909e-001 3.635079e-001 6.604612e-004
    outer loop
      vertex   -6.812970e+000 -2.144079e+000 6.985000e+000
      vertex   -6.717580e+000 -1.899617e+000 6.985000e+000
      vertex   -6.785870e+000 -2.068284e+000 3.492500e+000
    endloop
  endfacet
  facet normal -8.983908e-001 4.391965e-001 6.759255e-004
    outer loop
      vertex   -6.717580e+000 -1.899617e+000 6.985000e+000
      vertex   -6.602329e+000 -1.663867e+000 6.985000e+000
      vertex   -6.682826e+000 -1.823151e+000 3.492500e+000
    endloop
  endfacet
  facet normal -8.590537e-001 5.118849e-001 6.902852e-004
    outer loop
      vertex   -6.602329e+000 -1.663867e+000 6.985000e+000
      vertex   -6.468004e+000 -1.438440e+000 6.985000e+000
      vertex   -6.559631e+000 -1.587500e+000 3.492500e+000
    endloop
  endfacet
  facet normal -8.138485e-001 5.810767e-001 7.035403e-004
    outer loop
      vertex   -6.468004e+000 -1.438440e+000 6.985000e+000
      vertex   -6.315521e+000 -1.224875e+000 6.985000e+000
      vertex   -6.417149e+000 -1.362984e+000 3.492500e+000
    endloop
  endfacet
  facet normal -7.630839e-001 6.462991e-001 7.156910e-004
    outer loop
      vertex   -6.315521e+000 -1.224875e+000 6.985000e+000
      vertex   -6.145923e+000 -1.024631e+000 6.985000e+000
      vertex   -6.256380e+000 -1.151179e+000 3.492500e+000
    endloop
  endfacet
  facet normal -7.071066e-001 7.071066e-001 7.267371e-004
    outer loop
      vertex   -6.145923e+000 -1.024631e+000 6.985000e+000
      vertex   -5.960369e+000 -8.390766e-001 6.985000e+000
      vertex   -6.078451e+000 -9.535689e-001 3.492500e+000
    endloop
  endfacet
  facet normal -6.462991e-001 7.630839e-001 7.366786e-004
    outer loop
      vertex   -5.960369e+000 -8.390766e-001 6.985000e+000
      vertex   -5.760125e+000 -6.694789e-001 6.985000e+000
      vertex   -5.884610e+000 -7.715407e-001 3.492500e+000
    endloop
  endfacet
  facet normal -5.810767e-001 8.138485e-001 7.455155e-004
    outer loop
      vertex   -5.760125e+000 -6.694789e-001 6.985000e+000
      vertex   -5.546560e+000 -5.169964e-001 6.985000e+000
      vertex   -5.676218e+000 -6.063710e-001 3.492500e+000
    endloop
  endfacet
  facet normal -5.118849e-001 8.590537e-001 7.532478e-004
    outer loop
      vertex   -5.546560e+000 -5.169964e-001 6.985000e+000
      vertex   -5.321133e+000 -3.826708e-001 6.985000e+000
      vertex   -5.454736e+000 -4.592185e-001 3.492500e+000
    endloop
  endfacet
  facet normal -4.391965e-001 8.983907e-001 7.598756e-004
    outer loop
      vertex   -5.321133e+000 -3.826708e-001 6.985000e+000
      vertex   -5.085383e+000 -2.674197e-001 6.985000e+000
      vertex   -5.221717e+000 -3.311152e-001 3.492500e+000
    endloop
  endfacet
  facet normal -3.635079e-001 9.315908e-001 7.653987e-004
    outer loop
      vertex   -5.085383e+000 -2.674197e-001 6.985000e+000
      vertex   -4.840921e+000 -1.720303e-001 6.985000e+000
      vertex   -4.978795e+000 -2.229597e-001 3.492500e+000
    endloop
  endfacet
  facet normal -2.853361e-001 9.584272e-001 7.698172e-004
    outer loop
      vertex   -4.840921e+000 -1.720303e-001 6.985000e+000
      vertex   -4.589416e+000 -9.715416e-002 6.985000e+000
      vertex   -4.727676e+000 -1.355106e-001 3.492500e+000
    endloop
  endfacet
  facet normal -2.052153e-001 9.787166e-001 7.731311e-004
    outer loop
      vertex   -4.589416e+000 -9.715416e-002 6.985000e+000
      vertex   -4.332588e+000 -4.330286e-002 6.985000e+000
      vertex   -4.470120e+000 -6.938137e-002 3.492500e+000
    endloop
  endfacet
  facet normal -1.236926e-001 9.923203e-001 7.753403e-004
    outer loop
      vertex   -4.332588e+000 -4.330286e-002 6.985000e+000
      vertex   -4.072189e+000 -1.084423e-002 6.985000e+000
      vertex   -4.207933e+000 -2.503582e-002 3.492500e+000
    endloop
  endfacet
  facet normal -4.132496e-002 9.991455e-001 7.764450e-004
    outer loop
      vertex   -4.072189e+000 -1.084423e-002 6.985000e+000
      vertex   -3.810000e+000 -5.551115e-016 6.985000e+000
      vertex   -3.942955e+000 -2.785014e-003 3.492500e+000
    endloop
  endfacet
  facet normal -4.132496e-002 9.991455e-001 -7.764450e-004
    outer loop
      vertex   -3.810000e+000 -5.551115e-016 0.000000e+000
      vertex   -4.072189e+000 -1.084423e-002 0.000000e+000
      vertex   -3.942955e+000 -2.785014e-003 3.492500e+000
    endloop
  endfacet
  facet normal -8.367782e-002 9.964925e-001 7.968746e-004
    outer loop
      vertex   -3.942955e+000 -2.785014e-003 3.492500e+000
      vertex   -4.072189e+000 -1.084423e-002 0.000000e+000
      vertex   -4.207933e+000 -2.503582e-002 3.492500e+000
    endloop
  endfacet
  facet normal -2.185478e-016 1.000000e+000 0.000000e+000
    outer loop
      vertex   -1.270000e+000 0.000000e+000 0.000000e+000
      vertex   -3.810000e+000 -5.551115e-016 0.000000e+000
      vertex   -1.270000e+000 0.000000e+000 6.985000e+000
    endloop
  endfacet
  facet normal -2.185478e-016 1.000000e+000 0.000000e+000
    outer loop
      vertex   -1.270000e+000 0.000000e+000 6.985000e+000
      vertex   -3.810000e+000 -5.551115e-016 0.000000e+000
      vertex   -3.810000e+000 -5.551115e-016 6.985000e+000
    endloop
  endfacet
  facet normal 7.071068e-001 7.071068e-001 0.000000e+000
    outer loop
      vertex   0.000000e+000 -1.270000e+000 0.000000e+000
      vertex   -1.270000e+000 0.000000e+000 0.000000e+000
      vertex   0.000000e+000 -1.270000e+000 6.985000e+000
    endloop
  endfacet
  facet normal 7.071068e-001 7.071068e-001 -0.000000e+000
    outer loop
      vertex   0.000000e+000 -1.270000e+000 6.985000e+000
      vertex   -1.270000e+000 0.000000e+000 0.000000e+000
      vertex   -1.270000e+000 0.000000e+000 6.985000e+000
    endloop
  endfacet
  facet normal 1.000000e+000 0.000000e+000 -0.000000e+000
    outer loop
      vertex   0.000000e+000 -2.540000e+000 0.000000e+000
      vertex   0.000000e+000 -1.270000e+000 0.000000e+000
      vertex   0.000000e+000 -2.540000e+000 6.985000e+000
    endloop
  endfacet
  facet normal 1.000000e+000 -0.000000e+000 0.000000e+000
    outer loop
      vertex   0.000000e+000 -2.540000e+000 6.985000e+000
      vertex   0.000000e+000 -1.270000e+000 0.000000e+000
      vertex   0.000000e+000 -1.270000e+000 6.985000e+000
    endloop
  endfacet
  facet normal 0.000000e+000 -1.000000e+000 0.000000e+000
    outer loop
      vertex   -5.924102e-001 -2.540000e+000 0.000000e+000
      vertex   0.000000e+000 -2.540000e+000 0.000000e+000
      vertex   -5.924102e-001 -2.540000e+000 6.985000e+000
    endloop
  endfacet
  facet normal 0.000000e+000 -1.000000e+000 0.000000e+000
    outer loop
      vertex   -5.924102e-001 -2.540000e+000 6.985000e+000
      vertex   0.000000e+000 -2.540000e+000 0.000000e+000
      vertex   0.000000e+000 -2.540000e+000 6.985000e+000
    endloop
  endfacet
  facet normal 0.000000e+000 -0.000000e+000 1.000000e+000
    outer loop
      vertex   0.000000e+000 -2.540000e+000 6.985000e+000
      vertex   0.000000e+000 -1.270000e+000 6.985000e+000
      vertex   -5.924102e-001 -2.540000e+000 6.985000e+000
    endloop
  endfacet
  facet normal 0.000000e+000 -0.000000e+000 1.000000e+000
    outer loop
      vertex   -5.924102e-001 -2.540000e+000 6.985000e+000
      vertex   0.000000e+000 -1.270000e+000 6.985000e+000
      vertex   -1.566205e+000 -2.264230e+000 6.985000e+000
    endloop
  endfacet
  facet normal 0.000000e+000 -0.000000e+000 1.000000e+000
    outer loop
      vertex   -1.566205e+000 -2.264230e+000 6.985000e+000
      vertex   0.000000e+000 -1.270000e+000 6.985000e+000
      vertex   -1.270000e+000 0.000000e+000 6.985000e+000
    endloop
  endfacet
  facet normal -0.000000e+000 0.000000e+000 1.000000e+000
    outer loop
      vertex   -3.810000e+000 -5.551115e-016 6.985000e+000
      vertex   -1.566205e+000 -2.264230e+000 6.985000e+000
      vertex   -1.270000e+000 0.000000e+000 6.985000e+000
    endloop
  endfacet
  facet normal 0.000000e+000 0.000000e+000 1.000000e+000
    outer loop
      vertex   -3.810000e+000 -5.551115e-016 6.985000e+000
      vertex   -4.072189e+000 -1.084423e-002 6.985000e+000
      vertex   -1.566205e+000 -2.264230e+000 6.985000e+000
    endloop
  endfacet
  facet normal 0.000000e+000 0.000000e+000 1.000000e+000
    outer loop
      vertex   -1.566205e+000 -2.264230e+000 6.985000e+000
      vertex   -4.072189e+000 -1.084423e-002 6.985000e+000
      vertex   -4.332588e+000 -4.330286e-002 6.985000e+000
    endloop
  endfacet
  facet normal 0.000000e+000 0.000000e+000 1.000000e+000
    outer loop
      vertex   -2.540000e+000 -2.264230e+000 6.985000e+000
      vertex   -4.332588e+000 -4.330286e-002 6.985000e+000
      vertex   -4.589416e+000 -9.715416e-002 6.985000e+000
    endloop
  endfacet
  facet normal -0.000000e+000 -0.000000e+000 1.000000e+000
    outer loop
      vertex   -4.840921e+000 -1.720303e-001 6.985000e+000
      vertex   -2.540000e+000 -2.264230e+000 6.985000e+000
      vertex   -4.589416e+000 -9.715416e-002 6.985000e+000
    endloop
  endfacet
  facet normal 0.000000e+000 0.000000e+000 1.000000e+000
    outer loop
      vertex   -4.840921e+000 -1.720303e-001 6.985000e+000
      vertex   -5.085383e+000 -2.674197e-001 6.985000e+000
      vertex   -2.540000e+000 -2.264230e+000 6.985000e+000
    endloop
  endfacet
  facet normal 0.000000e+000 0.000000e+000 1.000000e+000
    outer loop
      vertex   -2.540000e+000 -2.264230e+000 6.985000e+000
      vertex   -5.085383e+000 -2.674197e-001 6.985000e+000
      vertex   -5.321133e+000 -3.826708e-001 6.985000e+000
    endloop
  endfacet
  facet normal -0.000000e+000 -0.000000e+000 1.000000e+000
    outer loop
      vertex   -5.546560e+000 -5.169964e-001 6.985000e+000
      vertex   -2.540000e+000 -2.264230e+000 6.985000e+000
      vertex   -5.321133e+000 -3.826708e-001 6.985000e+000
    endloop
  endfacet
  facet normal 0.000000e+000 0.000000e+000 1.000000e+000
    outer loop
      vertex   -5.546560e+000 -5.169964e-001 6.985000e+000
      vertex   -5.760125e+000 -6.694789e-001 6.985000e+000
      vertex   -2.540000e+000 -2.264230e+000 6.985000e+000
    endloop
  endfacet
  facet normal 0.000000e+000 0.000000e+000 1.000000e+000
    outer loop
      vertex   -2.540000e+000 -2.264230e+000 6.985000e+000
      vertex   -5.760125e+000 -6.694789e-001 6.985000e+000
      vertex   -5.960369e+000 -8.390766e-001 6.985000e+000
    endloop
  endfacet
  facet normal -0.000000e+000 -0.000000e+000 1.000000e+000
    outer loop
      vertex   -6.145923e+000 -1.024631e+000 6.985000e+000
      vertex   -2.540000e+000 -2.264230e+000 6.985000e+000
      vertex   -5.960369e+000 -8.390766e-001 6.985000e+000
    endloop
  endfacet
  facet normal 0.000000e+000 0.000000e+000 1.000000e+000
    outer loop
      vertex   -6.145923e+000 -1.024631e+000 6.985000e+000
      vertex   -6.315521e+000 -1.224875e+000 6.985000e+000
      vertex   -2.540000e+000 -2.264230e+000 6.985000e+000
    endloop
  endfacet
  facet normal 0.000000e+000 0.000000e+000 1.000000e+000
    outer loop
      vertex   -2.540000e+000 -2.264230e+000 6.985000e+000
      vertex   -6.315521e+000 -1.224875e+000 6.985000e+000
      vertex   -6.468004e+000 -1.438440e+000 6.985000e+000
    endloop
  endfacet
  facet normal -0.000000e+000 -0.000000e+000 1.000000e+000
    outer loop
      vertex   -6.602329e+000 -1.663867e+000 6.985000e+000
      vertex   -2.540000e+000 -2.264230e+000 6.985000e+000
      vertex   -6.468004e+000 -1.438440e+000 6.985000e+000
    endloop
  endfacet
  facet normal 0.000000e+000 0.000000e+000 1.000000e+000
    outer loop
      vertex   -6.602329e+000 -1.663867e+000 6.985000e+000
      vertex   -6.717580e+000 -1.899617e+000 6.985000e+000
      vertex   -2.540000e+000 -2.264230e+000 6.985000e+000
    endloop
  endfacet
  facet normal 0.000000e+000 0.000000e+000 1.000000e+000
    outer loop
      vertex   -2.540000e+000 -2.264230e+000 6.985000e+000
      vertex   -6.717580e+000 -1.899617e+000 6.985000e+000
      vertex   -6.812970e+000 -2.144079e+000 6.985000e+000
    endloop
  endfacet
  facet normal 0.000000e+000 -0.000000e+000 1.000000e+000
    outer loop
      vertex   -6.887846e+000 -2.395584e+000 6.985000e+000
      vertex   -2.540000e+000 -2.264230e+000 6.985000e+000
      vertex   -6.812970e+000 -2.144079e+000 6.985000e+000
    endloop
  endfacet
  facet normal -0.000000e+000 0.000000e+000 1.000000e+000
    outer loop
      vertex   -6.887846e+000 -2.395584e+000 6.985000e+000
      vertex   -6.941697e+000 -2.652412e+000 6.985000e+000
      vertex   -2.540000e+000 -2.264230e+000 6.985000e+000
    endloop
  endfacet
  facet normal 0.000000e+000 0.000000e+000 1.000000e+000
    outer loop
      vertex   -2.540000e+000 -2.264230e+000 6.985000e+000
      vertex   -6.941697e+000 -2.652412e+000 6.985000e+000
      vertex   -6.974156e+000 -2.912811e+000 6.985000e+000
    endloop
  endfacet
  facet normal 0.000000e+000 -0.000000e+000 1.000000e+000
    outer loop
      vertex   -6.985000e+000 -3.175000e+000 6.985000e+000
      vertex   -2.540000e+000 -2.264230e+000 6.985000e+000
      vertex   -6.974156e+000 -2.912811e+000 6.985000e+000
    endloop
  endfacet
  facet normal -0.000000e+000 0.000000e+000 1.000000e+000
    outer loop
      vertex   -6.985000e+000 -3.175000e+000 6.985000e+000
      vertex   -2.540000e+000 -6.007100e+000 6.985000e+000
      vertex   -2.540000e+000 -2.264230e+000 6.985000e+000
    endloop
  endfacet
  facet normal -0.000000e+000 0.000000e+000 1.000000e+000
    outer loop
      vertex   -6.985000e+000 -3.175000e+000 6.985000e+000
      vertex   -6.985000e+000 -7.607300e+000 6.985000e+000
      vertex   -2.540000e+000 -6.007100e+000 6.985000e+000
    endloop
  endfacet
  facet normal -0.000000e+000 0.000000e+000 1.000000e+000
    outer loop
      vertex   -2.540000e+000 -6.007100e+000 6.985000e+000
      vertex   -6.985000e+000 -7.607300e+000 6.985000e+000
      vertex   0.000000e+000 -7.607300e+000 6.985000e+000
    endloop
  endfacet
  facet normal -0.000000e+000 0.000000e+000 1.000000e+000
    outer loop
      vertex   -5.247334e-001 -6.016747e+000 6.985000e+000
      vertex   0.000000e+000 -7.607300e+000 6.985000e+000
      vertex   0.000000e+000 -6.642100e+000 6.985000e+000
    endloop
  endfacet
  facet normal -0.000000e+000 -0.000000e+000 1.000000e+000
    outer loop
      vertex   -4.178172e-001 -6.045395e+000 6.985000e+000
      vertex   0.000000e+000 -6.642100e+000 6.985000e+000
      vertex   -3.175000e-001 -6.092174e+000 6.985000e+000
    endloop
  endfacet
  facet normal 0.000000e+000 0.000000e+000 1.000000e+000
    outer loop
      vertex   -4.178172e-001 -6.045395e+000 6.985000e+000
      vertex   -5.247334e-001 -6.016747e+000 6.985000e+000
      vertex   0.000000e+000 -6.642100e+000 6.985000e+000
    endloop
  endfacet
  facet normal 0.000000e+000 0.000000e+000 1.000000e+000
    outer loop
      vertex   -1.566205e+000 -2.264230e+000 6.985000e+000
      vertex   -4.332588e+000 -4.330286e-002 6.985000e+000
      vertex   -2.540000e+000 -2.264230e+000 6.985000e+000
    endloop
  endfacet
  facet normal -0.000000e+000 -0.000000e+000 1.000000e+000
    outer loop
      vertex   -2.540000e+000 -6.007100e+000 6.985000e+000
      vertex   0.000000e+000 -7.607300e+000 6.985000e+000
      vertex   -5.247334e-001 -6.016747e+000 6.985000e+000
    endloop
  endfacet
  facet normal 0.000000e+000 0.000000e+000 1.000000e+000
    outer loop
      vertex   -6.350000e-001 -6.007100e+000 6.985000e+000
      vertex   -2.540000e+000 -6.007100e+000 6.985000e+000
      vertex   -5.247334e-001 -6.016747e+000 6.985000e+000
    endloop
  endfacet
  facet normal 0.000000e+000 0.000000e+000 1.000000e+000
    outer loop
      vertex   -9.647077e-003 -6.531833e+000 6.985000e+000
      vertex   -3.829519e-002 -6.424917e+000 6.985000e+000
      vertex   0.000000e+000 -6.642100e+000 6.985000e+000
    endloop
  endfacet
  facet normal 0.000000e+000 0.000000e+000 1.000000e+000
    outer loop
      vertex   0.000000e+000 -6.642100e+000 6.985000e+000
      vertex   -3.829519e-002 -6.424917e+000 6.985000e+000
      vertex   -8.507387e-002 -6.324600e+000 6.985000e+000
    endloop
  endfacet
  facet normal -0.000000e+000 -0.000000e+000 1.000000e+000
    outer loop
      vertex   -1.485618e-001 -6.233930e+000 6.985000e+000
      vertex   0.000000e+000 -6.642100e+000 6.985000e+000
      vertex   -8.507387e-002 -6.324600e+000 6.985000e+000
    endloop
  endfacet
  facet normal 0.000000e+000 0.000000e+000 1.000000e+000
    outer loop
      vertex   -1.485618e-001 -6.233930e+000 6.985000e+000
      vertex   -2.268299e-001 -6.155662e+000 6.985000e+000
      vertex   0.000000e+000 -6.642100e+000 6.985000e+000
    endloop
  endfacet
  facet normal 0.000000e+000 0.000000e+000 1.000000e+000
    outer loop
      vertex   0.000000e+000 -6.642100e+000 6.985000e+000
      vertex   -2.268299e-001 -6.155662e+000 6.985000e+000
      vertex   -3.175000e-001 -6.092174e+000 6.985000e+000
    endloop
  endfacet
  facet normal 0.000000e+000 0.000000e+000 -1.000000e+000
    outer loop
      vertex   -5.924102e-001 -2.540000e+000 0.000000e+000
      vertex   -1.566205e+000 -2.264230e+000 0.000000e+000
      vertex   0.000000e+000 -2.540000e+000 0.000000e+000
    endloop
  endfacet
  facet normal 0.000000e+000 0.000000e+000 -1.000000e+000
    outer loop
      vertex   0.000000e+000 -2.540000e+000 0.000000e+000
      vertex   -1.566205e+000 -2.264230e+000 0.000000e+000
      vertex   0.000000e+000 -1.270000e+000 0.000000e+000
    endloop
  endfacet
  facet normal -0.000000e+000 0.000000e+000 -1.000000e+000
    outer loop
      vertex   0.000000e+000 -1.270000e+000 0.000000e+000
      vertex   -1.566205e+000 -2.264230e+000 0.000000e+000
      vertex   -1.270000e+000 0.000000e+000 0.000000e+000
    endloop
  endfacet
  facet normal -0.000000e+000 0.000000e+000 -1.000000e+000
    outer loop
      vertex   -1.270000e+000 0.000000e+000 0.000000e+000
      vertex   -1.566205e+000 -2.264230e+000 0.000000e+000
      vertex   -3.810000e+000 -5.551115e-016 0.000000e+000
    endloop
  endfacet
  facet normal -0.000000e+000 -0.000000e+000 -1.000000e+000
    outer loop
      vertex   -3.810000e+000 -5.551115e-016 0.000000e+000
      vertex   -1.566205e+000 -2.264230e+000 0.000000e+000
      vertex   -4.072189e+000 -1.084423e-002 0.000000e+000
    endloop
  endfacet
  facet normal -0.000000e+000 -0.000000e+000 -1.000000e+000
    outer loop
      vertex   -4.072189e+000 -1.084423e-002 0.000000e+000
      vertex   -1.566205e+000 -2.264230e+000 0.000000e+000
      vertex   -4.332588e+000 -4.330286e-002 0.000000e+000
    endloop
  endfacet
  facet normal -0.000000e+000 -0.000000e+000 -1.000000e+000
    outer loop
      vertex   -4.332588e+000 -4.330286e-002 0.000000e+000
      vertex   -1.566205e+000 -2.264230e+000 0.000000e+000
      vertex   -4.589416e+000 -9.715416e-002 0.000000e+000
    endloop
  endfacet
  facet normal -0.000000e+000 -0.000000e+000 -1.000000e+000
    outer loop
      vertex   -4.589416e+000 -9.715416e-002 0.000000e+000
      vertex   -1.566205e+000 -2.264230e+000 0.000000e+000
      vertex   -4.840921e+000 -1.720303e-001 0.000000e+000
    endloop
  endfacet
  facet normal -0.000000e+000 -0.000000e+000 -1.000000e+000
    outer loop
      vertex   -4.840921e+000 -1.720303e-001 0.000000e+000
      vertex   -1.566205e+000 -2.264230e+000 0.000000e+000
      vertex   -5.085383e+000 -2.674197e-001 0.000000e+000
    endloop
  endfacet
  facet normal -0.000000e+000 -0.000000e+000 -1.000000e+000
    outer loop
      vertex   -5.085383e+000 -2.674197e-001 0.000000e+000
      vertex   -1.566205e+000 -2.264230e+000 0.000000e+000
      vertex   -5.321133e+000 -3.826708e-001 0.000000e+000
    endloop
  endfacet
  facet normal -0.000000e+000 -0.000000e+000 -1.000000e+000
    outer loop
      vertex   -5.321133e+000 -3.826708e-001 0.000000e+000
      vertex   -1.566205e+000 -2.264230e+000 0.000000e+000
      vertex   -5.546560e+000 -5.169964e-001 0.000000e+000
    endloop
  endfacet
  facet normal -0.000000e+000 -0.000000e+000 -1.000000e+000
    outer loop
      vertex   -5.546560e+000 -5.169964e-001 0.000000e+000
      vertex   -1.566205e+000 -2.264230e+000 0.000000e+000
      vertex   -5.760125e+000 -6.694789e-001 0.000000e+000
    endloop
  endfacet
  facet normal -0.000000e+000 -0.000000e+000 -1.000000e+000
    outer loop
      vertex   -5.760125e+000 -6.694789e-001 0.000000e+000
      vertex   -1.566205e+000 -2.264230e+000 0.000000e+000
      vertex   -5.960369e+000 -8.390766e-001 0.000000e+000
    endloop
  endfacet
  facet normal -0.000000e+000 -0.000000e+000 -1.000000e+000
    outer loop
      vertex   -5.960369e+000 -8.390766e-001 0.000000e+000
      vertex   -1.566205e+000 -2.264230e+000 0.000000e+000
      vertex   -6.145923e+000 -1.024631e+000 0.000000e+000
    endloop
  endfacet
  facet normal -0.000000e+000 -0.000000e+000 -1.000000e+000
    outer loop
      vertex   -6.145923e+000 -1.024631e+000 0.000000e+000
      vertex   -1.566205e+000 -2.264230e+000 0.000000e+000
      vertex   -6.315521e+000 -1.224875e+000 0.000000e+000
    endloop
  endfacet
  facet normal -0.000000e+000 -0.000000e+000 -1.000000e+000
    outer loop
      vertex   -6.315521e+000 -1.224875e+000 0.000000e+000
      vertex   -1.566205e+000 -2.264230e+000 0.000000e+000
      vertex   -6.468004e+000 -1.438440e+000 0.000000e+000
    endloop
  endfacet
  facet normal -0.000000e+000 -0.000000e+000 -1.000000e+000
    outer loop
      vertex   -6.468004e+000 -1.438440e+000 0.000000e+000
      vertex   -1.566205e+000 -2.264230e+000 0.000000e+000
      vertex   -6.602329e+000 -1.663867e+000 0.000000e+000
    endloop
  endfacet
  facet normal -0.000000e+000 -0.000000e+000 -1.000000e+000
    outer loop
      vertex   -6.602329e+000 -1.663867e+000 0.000000e+000
      vertex   -1.566205e+000 -2.264230e+000 0.000000e+000
      vertex   -2.540000e+000 -2.264230e+000 0.000000e+000
    endloop
  endfacet
  facet normal -0.000000e+000 -0.000000e+000 -1.000000e+000
    outer loop
      vertex   -6.717580e+000 -1.899617e+000 0.000000e+000
      vertex   -2.540000e+000 -2.264230e+000 0.000000e+000
      vertex   -6.812970e+000 -2.144079e+000 0.000000e+000
    endloop
  endfacet
  facet normal 0.000000e+000 0.000000e+000 -1.000000e+000
    outer loop
      vertex   -6.717580e+000 -1.899617e+000 0.000000e+000
      vertex   -6.602329e+000 -1.663867e+000 0.000000e+000
      vertex   -2.540000e+000 -2.264230e+000 0.000000e+000
    endloop
  endfacet
  facet normal 0.000000e+000 0.000000e+000 -1.000000e+000
    outer loop
      vertex   -2.540000e+000 -6.007100e+000 0.000000e+000
      vertex   -6.985000e+000 -3.175000e+000 0.000000e+000
      vertex   -2.540000e+000 -2.264230e+000 0.000000e+000
    endloop
  endfacet
  facet normal -0.000000e+000 0.000000e+000 -1.000000e+000
    outer loop
      vertex   -2.540000e+000 -6.007100e+000 0.000000e+000
      vertex   -6.985000e+000 -7.607300e+000 0.000000e+000
      vertex   -6.985000e+000 -3.175000e+000 0.000000e+000
    endloop
  endfacet
  facet normal -0.000000e+000 -0.000000e+000 -1.000000e+000
    outer loop
      vertex   -2.540000e+000 -6.007100e+000 0.000000e+000
      vertex   0.000000e+000 -7.607300e+000 0.000000e+000
      vertex   -6.985000e+000 -7.607300e+000 0.000000e+000
    endloop
  endfacet
  facet normal 0.000000e+000 0.000000e+000 -1.000000e+000
    outer loop
      vertex   -2.540000e+000 -6.007100e+000 0.000000e+000
      vertex   -6.350000e-001 -6.007100e+000 0.000000e+000
      vertex   0.000000e+000 -7.607300e+000 0.000000e+000
    endloop
  endfacet
  facet normal 0.000000e+000 0.000000e+000 -1.000000e+000
    outer loop
      vertex   0.000000e+000 -7.607300e+000 0.000000e+000
      vertex   -6.350000e-001 -6.007100e+000 0.000000e+000
      vertex   0.000000e+000 -6.642100e+000 0.000000e+000
    endloop
  endfacet
  facet normal 0.000000e+000 0.000000e+000 -1.000000e+000
    outer loop
      vertex   0.000000e+000 -6.642100e+000 0.000000e+000
      vertex   -6.350000e-001 -6.007100e+000 0.000000e+000
      vertex   -5.247334e-001 -6.016747e+000 0.000000e+000
    endloop
  endfacet
  facet normal -0.000000e+000 -0.000000e+000 -1.000000e+000
    outer loop
      vertex   -4.178172e-001 -6.045395e+000 0.000000e+000
      vertex   0.000000e+000 -6.642100e+000 0.000000e+000
      vertex   -5.247334e-001 -6.016747e+000 0.000000e+000
    endloop
  endfacet
  facet normal 0.000000e+000 0.000000e+000 -1.000000e+000
    outer loop
      vertex   -4.178172e-001 -6.045395e+000 0.000000e+000
      vertex   -3.175000e-001 -6.092174e+000 0.000000e+000
      vertex   0.000000e+000 -6.642100e+000 0.000000e+000
    endloop
  endfacet
  facet normal 0.000000e+000 0.000000e+000 -1.000000e+000
    outer loop
      vertex   0.000000e+000 -6.642100e+000 0.000000e+000
      vertex   -3.175000e-001 -6.092174e+000 0.000000e+000
      vertex   -2.268299e-001 -6.155662e+000 0.000000e+000
    endloop
  endfacet
  facet normal -0.000000e+000 -0.000000e+000 -1.000000e+000
    outer loop
      vertex   -1.485618e-001 -6.233930e+000 0.000000e+000
      vertex   0.000000e+000 -6.642100e+000 0.000000e+000
      vertex   -2.268299e-001 -6.155662e+000 0.000000e+000
    endloop
  endfacet
  facet normal 0.000000e+000 0.000000e+000 -1.000000e+000
    outer loop
      vertex   -1.485618e-001 -6.233930e+000 0.000000e+000
      vertex   -8.507387e-002 -6.324600e+000 0.000000e+000
      vertex   0.000000e+000 -6.642100e+000 0.000000e+000
    endloop
  endfacet
  facet normal 0.000000e+000 0.000000e+000 -1.000000e+000
    outer loop
      vertex   0.000000e+000 -6.642100e+000 0.000000e+000
      vertex   -8.507387e-002 -6.324600e+000 0.000000e+000
      vertex   -3.829519e-002 -6.424917e+000 0.000000e+000
    endloop
  endfacet
  facet normal -0.000000e+000 -0.000000e+000 -1.000000e+000
    outer loop
      vertex   -9.647077e-003 -6.531833e+000 0.000000e+000
      vertex   0.000000e+000 -6.642100e+000 0.000000e+000
      vertex   -3.829519e-002 -6.424917e+000 0.000000e+000
    endloop
  endfacet
  facet normal 0.000000e+000 0.000000e+000 -1.000000e+000
    outer loop
      vertex   -6.985000e+000 -3.175000e+000 0.000000e+000
      vertex   -6.974156e+000 -2.912811e+000 0.000000e+000
      vertex   -2.540000e+000 -2.264230e+000 0.000000e+000
    endloop
  endfacet
  facet normal -0.000000e+000 0.000000e+000 -1.000000e+000
    outer loop
      vertex   -2.540000e+000 -2.264230e+000 0.000000e+000
      vertex   -6.974156e+000 -2.912811e+000 0.000000e+000
      vertex   -6.941697e+000 -2.652412e+000 0.000000e+000
    endloop
  endfacet
  facet normal 0.000000e+000 -0.000000e+000 -1.000000e+000
    outer loop
      vertex   -6.887846e+000 -2.395584e+000 0.000000e+000
      vertex   -2.540000e+000 -2.264230e+000 0.000000e+000
      vertex   -6.941697e+000 -2.652412e+000 0.000000e+000
    endloop
  endfacet
  facet normal 0.000000e+000 0.000000e+000 -1.000000e+000
    outer loop
      vertex   -6.887846e+000 -2.395584e+000 0.000000e+000
      vertex   -6.812970e+000 -2.144079e+000 0.000000e+000
      vertex   -2.540000e+000 -2.264230e+000 0.000000e+000
    endloop
  endfacet
endsolid
