solid ascii
  facet normal 9.969172e-001 -4.985546e-004 -7.845909e-002
    outer loop
      vertex   -1.804338e+001 -1.016000e+001 -1.643203e+000
      vertex   -1.803417e+001 -7.957954e+000 -1.540174e+000
      vertex   -1.803400e+001 -1.016000e+001 -1.524000e+000
    endloop
  endfacet
  facet normal 9.943727e-001 7.976639e-004 -1.059357e-001
    outer loop
      vertex   -1.804338e+001 -1.016000e+001 -1.643203e+000
      vertex   -1.804786e+001 -7.957954e+000 -1.668691e+000
      vertex   -1.803417e+001 -7.957954e+000 -1.540174e+000
    endloop
  endfacet
  facet normal 9.723697e-001 -7.229823e-004 -2.334453e-001
    outer loop
      vertex   -1.804338e+001 -1.016000e+001 -1.643203e+000
      vertex   -1.807129e+001 -1.016000e+001 -1.759471e+000
      vertex   -1.804786e+001 -7.957954e+000 -1.668691e+000
    endloop
  endfacet
  facet normal 9.621661e-001 9.940579e-004 -2.724617e-001
    outer loop
      vertex   -1.804786e+001 -7.957954e+000 -1.668691e+000
      vertex   -1.807129e+001 -1.016000e+001 -1.759471e+000
      vertex   -1.808308e+001 -7.957954e+000 -1.793045e+000
    endloop
  endfacet
  facet normal 9.022804e-001 1.304257e-016 -4.311496e-001
    outer loop
      vertex   -1.808308e+001 -5.755909e+000 -1.793045e+000
      vertex   -1.808308e+001 -7.957954e+000 -1.793045e+000
      vertex   -1.813880e+001 -5.755909e+000 -1.909660e+000
    endloop
  endfacet
  facet normal 8.526397e-001 1.003585e-003 -5.224983e-001
    outer loop
      vertex   -1.811705e+001 -3.553863e+000 -1.869941e+000
      vertex   -1.813880e+001 -5.755909e+000 -1.909660e+000
      vertex   -1.817953e+001 -3.553863e+000 -1.971892e+000
    endloop
  endfacet
  facet normal 9.022799e-001 -1.134362e-003 -4.311494e-001
    outer loop
      vertex   -1.811705e+001 -3.553863e+000 -1.869941e+000
      vertex   -1.808308e+001 -5.755909e+000 -1.793045e+000
      vertex   -1.813880e+001 -5.755909e+000 -1.909660e+000
    endloop
  endfacet
  facet normal 9.238792e-001 8.913348e-004 -3.826833e-001
    outer loop
      vertex   -1.811705e+001 -3.553863e+000 -1.869941e+000
      vertex   -1.807129e+001 -3.553863e+000 -1.759471e+000
      vertex   -1.808308e+001 -5.755909e+000 -1.793045e+000
    endloop
  endfacet
  facet normal 9.621661e-001 -9.940579e-004 -2.724617e-001
    outer loop
      vertex   -1.808308e+001 -5.755909e+000 -1.793045e+000
      vertex   -1.807129e+001 -3.553863e+000 -1.759471e+000
      vertex   -1.804786e+001 -5.755909e+000 -1.668691e+000
    endloop
  endfacet
  facet normal 9.943730e-001 3.204628e-017 -1.059357e-001
    outer loop
      vertex   -1.804786e+001 -7.957954e+000 -1.668691e+000
      vertex   -1.804786e+001 -5.755909e+000 -1.668691e+000
      vertex   -1.803417e+001 -7.957954e+000 -1.540174e+000
    endloop
  endfacet
  facet normal 9.621666e-001 8.228612e-017 -2.724618e-001
    outer loop
      vertex   -1.804786e+001 -7.957954e+000 -1.668691e+000
      vertex   -1.808308e+001 -5.755909e+000 -1.793045e+000
      vertex   -1.804786e+001 -5.755909e+000 -1.668691e+000
    endloop
  endfacet
  facet normal 9.621666e-001 8.242155e-017 -2.724618e-001
    outer loop
      vertex   -1.804786e+001 -7.957954e+000 -1.668691e+000
      vertex   -1.808308e+001 -7.957954e+000 -1.793045e+000
      vertex   -1.808308e+001 -5.755909e+000 -1.793045e+000
    endloop
  endfacet
  facet normal 9.238792e-001 -8.913348e-004 -3.826833e-001
    outer loop
      vertex   -1.807129e+001 -1.016000e+001 -1.759471e+000
      vertex   -1.811705e+001 -1.016000e+001 -1.869941e+000
      vertex   -1.808308e+001 -7.957954e+000 -1.793045e+000
    endloop
  endfacet
  facet normal 9.022799e-001 1.134362e-003 -4.311494e-001
    outer loop
      vertex   -1.808308e+001 -7.957954e+000 -1.793045e+000
      vertex   -1.811705e+001 -1.016000e+001 -1.869941e+000
      vertex   -1.813880e+001 -7.957954e+000 -1.909660e+000
    endloop
  endfacet
  facet normal 8.164373e-001 1.746777e-016 -5.774341e-001
    outer loop
      vertex   -1.813880e+001 -5.755909e+000 -1.909660e+000
      vertex   -1.813880e+001 -7.957954e+000 -1.909660e+000
      vertex   -1.821343e+001 -5.755909e+000 -2.015180e+000
    endloop
  endfacet
  facet normal 7.604055e-001 1.059715e-003 -6.494477e-001
    outer loop
      vertex   -1.817953e+001 -3.553863e+000 -1.971892e+000
      vertex   -1.821343e+001 -5.755909e+000 -2.015180e+000
      vertex   -1.825718e+001 -3.553863e+000 -2.062815e+000
    endloop
  endfacet
  facet normal 8.164367e-001 -1.218554e-003 -5.774336e-001
    outer loop
      vertex   -1.817953e+001 -3.553863e+000 -1.971892e+000
      vertex   -1.813880e+001 -5.755909e+000 -1.909660e+000
      vertex   -1.821343e+001 -5.755909e+000 -2.015180e+000
    endloop
  endfacet
  facet normal 8.526397e-001 -1.003585e-003 -5.224983e-001
    outer loop
      vertex   -1.811705e+001 -1.016000e+001 -1.869941e+000
      vertex   -1.817953e+001 -1.016000e+001 -1.971892e+000
      vertex   -1.813880e+001 -7.957954e+000 -1.909660e+000
    endloop
  endfacet
  facet normal 8.164367e-001 1.218554e-003 -5.774336e-001
    outer loop
      vertex   -1.813880e+001 -7.957954e+000 -1.909660e+000
      vertex   -1.817953e+001 -1.016000e+001 -1.971892e+000
      vertex   -1.821343e+001 -7.957954e+000 -2.015180e+000
    endloop
  endfacet
  facet normal 7.071068e-001 1.426031e-016 -7.071068e-001
    outer loop
      vertex   -1.821343e+001 -5.755909e+000 -2.015180e+000
      vertex   -1.821343e+001 -7.957954e+000 -2.015180e+000
      vertex   -1.830482e+001 -5.755909e+000 -2.106569e+000
    endloop
  endfacet
  facet normal 6.494477e-001 1.059715e-003 -7.604055e-001
    outer loop
      vertex   -1.825718e+001 -3.553863e+000 -2.062815e+000
      vertex   -1.830482e+001 -5.755909e+000 -2.106569e+000
      vertex   -1.834811e+001 -3.553863e+000 -2.140471e+000
    endloop
  endfacet
  facet normal 7.071062e-001 -1.246619e-003 -7.071062e-001
    outer loop
      vertex   -1.825718e+001 -3.553863e+000 -2.062815e+000
      vertex   -1.821343e+001 -5.755909e+000 -2.015180e+000
      vertex   -1.830482e+001 -5.755909e+000 -2.106569e+000
    endloop
  endfacet
  facet normal 7.604055e-001 -1.059715e-003 -6.494477e-001
    outer loop
      vertex   -1.817953e+001 -1.016000e+001 -1.971892e+000
      vertex   -1.825718e+001 -1.016000e+001 -2.062815e+000
      vertex   -1.821343e+001 -7.957954e+000 -2.015180e+000
    endloop
  endfacet
  facet normal 7.071062e-001 1.246619e-003 -7.071062e-001
    outer loop
      vertex   -1.821343e+001 -7.957954e+000 -2.015180e+000
      vertex   -1.825718e+001 -1.016000e+001 -2.062815e+000
      vertex   -1.830482e+001 -7.957954e+000 -2.106569e+000
    endloop
  endfacet
  facet normal 5.774341e-001 1.646519e-016 -8.164373e-001
    outer loop
      vertex   -1.830482e+001 -5.755909e+000 -2.106569e+000
      vertex   -1.830482e+001 -7.957954e+000 -2.106569e+000
      vertex   -1.841034e+001 -5.755909e+000 -2.181199e+000
    endloop
  endfacet
  facet normal 5.224983e-001 1.003585e-003 -8.526397e-001
    outer loop
      vertex   -1.834811e+001 -3.553863e+000 -2.140471e+000
      vertex   -1.841034e+001 -5.755909e+000 -2.181199e+000
      vertex   -1.845006e+001 -3.553863e+000 -2.202947e+000
    endloop
  endfacet
  facet normal 5.774336e-001 -1.218554e-003 -8.164367e-001
    outer loop
      vertex   -1.834811e+001 -3.553863e+000 -2.140471e+000
      vertex   -1.830482e+001 -5.755909e+000 -2.106569e+000
      vertex   -1.841034e+001 -5.755909e+000 -2.181199e+000
    endloop
  endfacet
  facet normal 6.494477e-001 -1.059715e-003 -7.604055e-001
    outer loop
      vertex   -1.825718e+001 -1.016000e+001 -2.062815e+000
      vertex   -1.834811e+001 -1.016000e+001 -2.140471e+000
      vertex   -1.830482e+001 -7.957954e+000 -2.106569e+000
    endloop
  endfacet
  facet normal 5.774336e-001 1.218554e-003 -8.164367e-001
    outer loop
      vertex   -1.830482e+001 -7.957954e+000 -2.106569e+000
      vertex   -1.834811e+001 -1.016000e+001 -2.140471e+000
      vertex   -1.841034e+001 -7.957954e+000 -2.181199e+000
    endloop
  endfacet
  facet normal 4.311496e-001 1.819640e-016 -9.022804e-001
    outer loop
      vertex   -1.841034e+001 -5.755909e+000 -2.181199e+000
      vertex   -1.841034e+001 -7.957954e+000 -2.181199e+000
      vertex   -1.852695e+001 -5.755909e+000 -2.236923e+000
    endloop
  endfacet
  facet normal 3.826833e-001 8.913348e-004 -9.238792e-001
    outer loop
      vertex   -1.845006e+001 -3.553863e+000 -2.202947e+000
      vertex   -1.852695e+001 -5.755909e+000 -2.236923e+000
      vertex   -1.856053e+001 -3.553863e+000 -2.248705e+000
    endloop
  endfacet
  facet normal 4.311494e-001 -1.134362e-003 -9.022799e-001
    outer loop
      vertex   -1.845006e+001 -3.553863e+000 -2.202947e+000
      vertex   -1.841034e+001 -5.755909e+000 -2.181199e+000
      vertex   -1.852695e+001 -5.755909e+000 -2.236923e+000
    endloop
  endfacet
  facet normal 5.224983e-001 -1.003585e-003 -8.526397e-001
    outer loop
      vertex   -1.834811e+001 -1.016000e+001 -2.140471e+000
      vertex   -1.845006e+001 -1.016000e+001 -2.202947e+000
      vertex   -1.841034e+001 -7.957954e+000 -2.181199e+000
    endloop
  endfacet
  facet normal 4.311494e-001 1.134362e-003 -9.022799e-001
    outer loop
      vertex   -1.841034e+001 -7.957954e+000 -2.181199e+000
      vertex   -1.845006e+001 -1.016000e+001 -2.202947e+000
      vertex   -1.852695e+001 -7.957954e+000 -2.236923e+000
    endloop
  endfacet
  facet normal 2.724618e-001 1.940413e-016 -9.621666e-001
    outer loop
      vertex   -1.852695e+001 -5.755909e+000 -2.236923e+000
      vertex   -1.852695e+001 -7.957954e+000 -2.236923e+000
      vertex   -1.865131e+001 -5.755909e+000 -2.272137e+000
    endloop
  endfacet
  facet normal 2.334453e-001 7.229823e-004 -9.723697e-001
    outer loop
      vertex   -1.856053e+001 -3.553863e+000 -2.248705e+000
      vertex   -1.865131e+001 -5.755909e+000 -2.272137e+000
      vertex   -1.867680e+001 -3.553863e+000 -2.276619e+000
    endloop
  endfacet
  facet normal 2.724617e-001 -9.940579e-004 -9.621661e-001
    outer loop
      vertex   -1.856053e+001 -3.553863e+000 -2.248705e+000
      vertex   -1.852695e+001 -5.755909e+000 -2.236923e+000
      vertex   -1.865131e+001 -5.755909e+000 -2.272137e+000
    endloop
  endfacet
  facet normal 3.826833e-001 -8.913348e-004 -9.238792e-001
    outer loop
      vertex   -1.845006e+001 -1.016000e+001 -2.202947e+000
      vertex   -1.856053e+001 -1.016000e+001 -2.248705e+000
      vertex   -1.852695e+001 -7.957954e+000 -2.236923e+000
    endloop
  endfacet
  facet normal 2.724617e-001 9.940579e-004 -9.621661e-001
    outer loop
      vertex   -1.852695e+001 -7.957954e+000 -2.236923e+000
      vertex   -1.856053e+001 -1.016000e+001 -2.248705e+000
      vertex   -1.865131e+001 -7.957954e+000 -2.272137e+000
    endloop
  endfacet
  facet normal 1.059357e-001 2.005364e-016 -9.943730e-001
    outer loop
      vertex   -1.865131e+001 -5.755909e+000 -2.272137e+000
      vertex   -1.865131e+001 -7.957954e+000 -2.272137e+000
      vertex   -1.877983e+001 -5.755909e+000 -2.285828e+000
    endloop
  endfacet
  facet normal 7.845909e-002 4.985546e-004 -9.969172e-001
    outer loop
      vertex   -1.867680e+001 -3.553863e+000 -2.276619e+000
      vertex   -1.877983e+001 -5.755909e+000 -2.285828e+000
      vertex   -1.879600e+001 -3.553863e+000 -2.286000e+000
    endloop
  endfacet
  facet normal 1.059357e-001 -7.976639e-004 -9.943727e-001
    outer loop
      vertex   -1.867680e+001 -3.553863e+000 -2.276619e+000
      vertex   -1.865131e+001 -5.755909e+000 -2.272137e+000
      vertex   -1.877983e+001 -5.755909e+000 -2.285828e+000
    endloop
  endfacet
  facet normal 2.334453e-001 -7.229823e-004 -9.723697e-001
    outer loop
      vertex   -1.856053e+001 -1.016000e+001 -2.248705e+000
      vertex   -1.867680e+001 -1.016000e+001 -2.276619e+000
      vertex   -1.865131e+001 -7.957954e+000 -2.272137e+000
    endloop
  endfacet
  facet normal 1.059357e-001 7.976639e-004 -9.943727e-001
    outer loop
      vertex   -1.865131e+001 -7.957954e+000 -2.272137e+000
      vertex   -1.867680e+001 -1.016000e+001 -2.276619e+000
      vertex   -1.877983e+001 -7.957954e+000 -2.285828e+000
    endloop
  endfacet
  facet normal 1.061329e-002 2.016599e-016 -9.999437e-001
    outer loop
      vertex   -1.877983e+001 -5.755909e+000 -2.285828e+000
      vertex   -1.877983e+001 -7.957954e+000 -2.285828e+000
      vertex   -1.879600e+001 -3.553863e+000 -2.286000e+000
    endloop
  endfacet
  facet normal 1.059357e-001 2.003819e-016 -9.943730e-001
    outer loop
      vertex   -1.877983e+001 -5.755909e+000 -2.285828e+000
      vertex   -1.865131e+001 -7.957954e+000 -2.272137e+000
      vertex   -1.877983e+001 -7.957954e+000 -2.285828e+000
    endloop
  endfacet
  facet normal 7.845909e-002 -4.985546e-004 -9.969172e-001
    outer loop
      vertex   -1.867680e+001 -1.016000e+001 -2.276619e+000
      vertex   -1.879600e+001 -1.016000e+001 -2.286000e+000
      vertex   -1.877983e+001 -7.957954e+000 -2.285828e+000
    endloop
  endfacet
  facet normal 1.061329e-002 0.000000e+000 -9.999437e-001
    outer loop
      vertex   -1.877983e+001 -7.957954e+000 -2.285828e+000
      vertex   -1.879600e+001 -1.016000e+001 -2.286000e+000
      vertex   -1.879600e+001 -3.553863e+000 -2.286000e+000
    endloop
  endfacet
  facet normal 9.723697e-001 7.229823e-004 -2.334453e-001
    outer loop
      vertex   -1.807129e+001 -3.553863e+000 -1.759471e+000
      vertex   -1.804338e+001 -3.553863e+000 -1.643203e+000
      vertex   -1.804786e+001 -5.755909e+000 -1.668691e+000
    endloop
  endfacet
  facet normal 9.943727e-001 -7.976639e-004 -1.059357e-001
    outer loop
      vertex   -1.804786e+001 -5.755909e+000 -1.668691e+000
      vertex   -1.804338e+001 -3.553863e+000 -1.643203e+000
      vertex   -1.803417e+001 -5.755909e+000 -1.540174e+000
    endloop
  endfacet
  facet normal 9.999437e-001 3.210593e-018 -1.061329e-002
    outer loop
      vertex   -1.803417e+001 -7.957954e+000 -1.540174e+000
      vertex   -1.803417e+001 -5.755909e+000 -1.540174e+000
      vertex   -1.803400e+001 -1.016000e+001 -1.524000e+000
    endloop
  endfacet
  facet normal 9.943730e-001 3.200016e-017 -1.059357e-001
    outer loop
      vertex   -1.803417e+001 -7.957954e+000 -1.540174e+000
      vertex   -1.804786e+001 -5.755909e+000 -1.668691e+000
      vertex   -1.803417e+001 -5.755909e+000 -1.540174e+000
    endloop
  endfacet
  facet normal 9.969172e-001 4.985546e-004 -7.845909e-002
    outer loop
      vertex   -1.804338e+001 -3.553863e+000 -1.643203e+000
      vertex   -1.803400e+001 -3.553863e+000 -1.524000e+000
      vertex   -1.803417e+001 -5.755909e+000 -1.540174e+000
    endloop
  endfacet
  facet normal 9.999437e-001 2.140395e-018 -1.061329e-002
    outer loop
      vertex   -1.803417e+001 -5.755909e+000 -1.540174e+000
      vertex   -1.803400e+001 -3.553863e+000 -1.524000e+000
      vertex   -1.803400e+001 -1.016000e+001 -1.524000e+000
    endloop
  endfacet
  facet normal 9.022804e-001 1.304257e-016 -4.311496e-001
    outer loop
      vertex   -1.813880e+001 -7.957954e+000 -1.909660e+000
      vertex   -1.813880e+001 -5.755909e+000 -1.909660e+000
      vertex   -1.808308e+001 -7.957954e+000 -1.793045e+000
    endloop
  endfacet
  facet normal 8.164373e-001 1.164518e-016 -5.774341e-001
    outer loop
      vertex   -1.821343e+001 -7.957954e+000 -2.015180e+000
      vertex   -1.821343e+001 -5.755909e+000 -2.015180e+000
      vertex   -1.813880e+001 -7.957954e+000 -1.909660e+000
    endloop
  endfacet
  facet normal 7.071068e-001 1.426031e-016 -7.071068e-001
    outer loop
      vertex   -1.830482e+001 -7.957954e+000 -2.106569e+000
      vertex   -1.830482e+001 -5.755909e+000 -2.106569e+000
      vertex   -1.821343e+001 -7.957954e+000 -2.015180e+000
    endloop
  endfacet
  facet normal 5.774341e-001 1.646519e-016 -8.164373e-001
    outer loop
      vertex   -1.841034e+001 -7.957954e+000 -2.181199e+000
      vertex   -1.841034e+001 -5.755909e+000 -2.181199e+000
      vertex   -1.830482e+001 -7.957954e+000 -2.106569e+000
    endloop
  endfacet
  facet normal 4.311496e-001 1.819640e-016 -9.022804e-001
    outer loop
      vertex   -1.852695e+001 -7.957954e+000 -2.236923e+000
      vertex   -1.852695e+001 -5.755909e+000 -2.236923e+000
      vertex   -1.841034e+001 -7.957954e+000 -2.181199e+000
    endloop
  endfacet
  facet normal 2.724618e-001 1.940413e-016 -9.621666e-001
    outer loop
      vertex   -1.865131e+001 -7.957954e+000 -2.272137e+000
      vertex   -1.865131e+001 -5.755909e+000 -2.272137e+000
      vertex   -1.852695e+001 -7.957954e+000 -2.236923e+000
    endloop
  endfacet
  facet normal -0.000000e+000 -1.000000e+000 0.000000e+000
    outer loop
      vertex   -1.867680e+001 -1.016000e+001 -2.276619e+000
      vertex   -1.856053e+001 -1.016000e+001 -2.248705e+000
      vertex   -1.879600e+001 -1.016000e+001 -2.286000e+000
    endloop
  endfacet
  facet normal 0.000000e+000 -1.000000e+000 0.000000e+000
    outer loop
      vertex   -1.879600e+001 -1.016000e+001 -2.286000e+000
      vertex   -1.856053e+001 -1.016000e+001 -2.248705e+000
      vertex   -1.845006e+001 -1.016000e+001 -2.202947e+000
    endloop
  endfacet
  facet normal 0.000000e+000 -1.000000e+000 0.000000e+000
    outer loop
      vertex   -2.032000e+001 -1.016000e+001 -2.286000e+000
      vertex   -1.845006e+001 -1.016000e+001 -2.202947e+000
      vertex   -1.834811e+001 -1.016000e+001 -2.140471e+000
    endloop
  endfacet
  facet normal 0.000000e+000 -1.000000e+000 -0.000000e+000
    outer loop
      vertex   -1.825718e+001 -1.016000e+001 -2.062815e+000
      vertex   -2.032000e+001 -1.016000e+001 -2.286000e+000
      vertex   -1.834811e+001 -1.016000e+001 -2.140471e+000
    endloop
  endfacet
  facet normal -0.000000e+000 -1.000000e+000 0.000000e+000
    outer loop
      vertex   -1.825718e+001 -1.016000e+001 -2.062815e+000
      vertex   -1.817953e+001 -1.016000e+001 -1.971892e+000
      vertex   -2.032000e+001 -1.016000e+001 -2.286000e+000
    endloop
  endfacet
  facet normal 0.000000e+000 -1.000000e+000 0.000000e+000
    outer loop
      vertex   -2.032000e+001 -1.016000e+001 -2.286000e+000
      vertex   -1.817953e+001 -1.016000e+001 -1.971892e+000
      vertex   -1.811705e+001 -1.016000e+001 -1.869941e+000
    endloop
  endfacet
  facet normal 0.000000e+000 -1.000000e+000 -0.000000e+000
    outer loop
      vertex   -1.807129e+001 -1.016000e+001 -1.759471e+000
      vertex   -2.032000e+001 -1.016000e+001 -2.286000e+000
      vertex   -1.811705e+001 -1.016000e+001 -1.869941e+000
    endloop
  endfacet
  facet normal -0.000000e+000 -1.000000e+000 0.000000e+000
    outer loop
      vertex   -1.807129e+001 -1.016000e+001 -1.759471e+000
      vertex   -1.804338e+001 -1.016000e+001 -1.643203e+000
      vertex   -2.032000e+001 -1.016000e+001 -2.286000e+000
    endloop
  endfacet
  facet normal 0.000000e+000 -1.000000e+000 0.000000e+000
    outer loop
      vertex   -2.032000e+001 -1.016000e+001 -2.286000e+000
      vertex   -1.804338e+001 -1.016000e+001 -1.643203e+000
      vertex   -1.803400e+001 -1.016000e+001 -1.524000e+000
    endloop
  endfacet
  facet normal 0.000000e+000 -1.000000e+000 -0.000000e+000
    outer loop
      vertex   -1.803400e+001 -1.016000e+001 2.540000e-001
      vertex   -2.032000e+001 -1.016000e+001 -2.286000e+000
      vertex   -1.803400e+001 -1.016000e+001 -1.524000e+000
    endloop
  endfacet
  facet normal -0.000000e+000 -1.000000e+000 -0.000000e+000
    outer loop
      vertex   -1.803400e+001 -1.016000e+001 2.540000e-001
      vertex   -2.032000e+001 -1.016000e+001 1.016000e+000
      vertex   -2.032000e+001 -1.016000e+001 -2.286000e+000
    endloop
  endfacet
  facet normal 0.000000e+000 -1.000000e+000 0.000000e+000
    outer loop
      vertex   -1.803400e+001 -1.016000e+001 2.540000e-001
      vertex   0.000000e+000 -1.016000e+001 1.016000e+000
      vertex   -2.032000e+001 -1.016000e+001 1.016000e+000
    endloop
  endfacet
  facet normal 0.000000e+000 -1.000000e+000 0.000000e+000
    outer loop
      vertex   -1.803400e+001 -1.016000e+001 2.540000e-001
      vertex   0.000000e+000 -1.016000e+001 2.540000e-001
      vertex   0.000000e+000 -1.016000e+001 1.016000e+000
    endloop
  endfacet
  facet normal -0.000000e+000 -1.000000e+000 0.000000e+000
    outer loop
      vertex   -1.879600e+001 -1.016000e+001 -2.286000e+000
      vertex   -1.845006e+001 -1.016000e+001 -2.202947e+000
      vertex   -2.032000e+001 -1.016000e+001 -2.286000e+000
    endloop
  endfacet
  facet normal 1.000000e+000 0.000000e+000 -0.000000e+000
    outer loop
      vertex   -1.803400e+001 -1.016000e+001 -1.524000e+000
      vertex   -1.803400e+001 -3.553863e+000 -1.524000e+000
      vertex   -1.803400e+001 -1.016000e+001 2.540000e-001
    endloop
  endfacet
  facet normal 1.000000e+000 -0.000000e+000 0.000000e+000
    outer loop
      vertex   -1.803400e+001 -1.016000e+001 2.540000e-001
      vertex   -1.803400e+001 -3.553863e+000 -1.524000e+000
      vertex   -1.803400e+001 -3.553863e+000 2.540000e-001
    endloop
  endfacet
  facet normal 9.969172e-001 4.985546e-004 7.845909e-002
    outer loop
      vertex   -1.804338e+001 -3.553863e+000 -1.232680e+001
      vertex   -1.803417e+001 -5.755909e+000 -1.242983e+001
      vertex   -1.803400e+001 -3.553863e+000 -1.244600e+001
    endloop
  endfacet
  facet normal 9.943727e-001 -7.976639e-004 1.059357e-001
    outer loop
      vertex   -1.804338e+001 -3.553863e+000 -1.232680e+001
      vertex   -1.804786e+001 -5.755909e+000 -1.230131e+001
      vertex   -1.803417e+001 -5.755909e+000 -1.242983e+001
    endloop
  endfacet
  facet normal 9.723697e-001 7.229823e-004 2.334453e-001
    outer loop
      vertex   -1.804338e+001 -3.553863e+000 -1.232680e+001
      vertex   -1.807129e+001 -3.553863e+000 -1.221053e+001
      vertex   -1.804786e+001 -5.755909e+000 -1.230131e+001
    endloop
  endfacet
  facet normal 9.621661e-001 -9.940579e-004 2.724617e-001
    outer loop
      vertex   -1.804786e+001 -5.755909e+000 -1.230131e+001
      vertex   -1.807129e+001 -3.553863e+000 -1.221053e+001
      vertex   -1.808308e+001 -5.755909e+000 -1.217695e+001
    endloop
  endfacet
  facet normal 9.022804e-001 -0.000000e+000 4.311496e-001
    outer loop
      vertex   -1.808308e+001 -7.957954e+000 -1.217695e+001
      vertex   -1.808308e+001 -5.755909e+000 -1.217695e+001
      vertex   -1.813880e+001 -7.957954e+000 -1.206034e+001
    endloop
  endfacet
  facet normal 8.526397e-001 -1.003585e-003 5.224983e-001
    outer loop
      vertex   -1.811705e+001 -1.016000e+001 -1.210006e+001
      vertex   -1.813880e+001 -7.957954e+000 -1.206034e+001
      vertex   -1.817953e+001 -1.016000e+001 -1.199811e+001
    endloop
  endfacet
  facet normal 9.022799e-001 1.134362e-003 4.311494e-001
    outer loop
      vertex   -1.811705e+001 -1.016000e+001 -1.210006e+001
      vertex   -1.808308e+001 -7.957954e+000 -1.217695e+001
      vertex   -1.813880e+001 -7.957954e+000 -1.206034e+001
    endloop
  endfacet
  facet normal 9.238792e-001 -8.913348e-004 3.826833e-001
    outer loop
      vertex   -1.811705e+001 -1.016000e+001 -1.210006e+001
      vertex   -1.807129e+001 -1.016000e+001 -1.221053e+001
      vertex   -1.808308e+001 -7.957954e+000 -1.217695e+001
    endloop
  endfacet
  facet normal 9.621661e-001 9.940579e-004 2.724617e-001
    outer loop
      vertex   -1.808308e+001 -7.957954e+000 -1.217695e+001
      vertex   -1.807129e+001 -1.016000e+001 -1.221053e+001
      vertex   -1.804786e+001 -7.957954e+000 -1.230131e+001
    endloop
  endfacet
  facet normal 9.943730e-001 0.000000e+000 1.059357e-001
    outer loop
      vertex   -1.804786e+001 -5.755909e+000 -1.230131e+001
      vertex   -1.804786e+001 -7.957954e+000 -1.230131e+001
      vertex   -1.803417e+001 -5.755909e+000 -1.242983e+001
    endloop
  endfacet
  facet normal 9.621666e-001 0.000000e+000 2.724618e-001
    outer loop
      vertex   -1.804786e+001 -5.755909e+000 -1.230131e+001
      vertex   -1.808308e+001 -7.957954e+000 -1.217695e+001
      vertex   -1.804786e+001 -7.957954e+000 -1.230131e+001
    endloop
  endfacet
  facet normal 9.621666e-001 0.000000e+000 2.724618e-001
    outer loop
      vertex   -1.804786e+001 -5.755909e+000 -1.230131e+001
      vertex   -1.808308e+001 -5.755909e+000 -1.217695e+001
      vertex   -1.808308e+001 -7.957954e+000 -1.217695e+001
    endloop
  endfacet
  facet normal 9.238792e-001 8.913348e-004 3.826833e-001
    outer loop
      vertex   -1.807129e+001 -3.553863e+000 -1.221053e+001
      vertex   -1.811705e+001 -3.553863e+000 -1.210006e+001
      vertex   -1.808308e+001 -5.755909e+000 -1.217695e+001
    endloop
  endfacet
  facet normal 9.022799e-001 -1.134362e-003 4.311494e-001
    outer loop
      vertex   -1.808308e+001 -5.755909e+000 -1.217695e+001
      vertex   -1.811705e+001 -3.553863e+000 -1.210006e+001
      vertex   -1.813880e+001 -5.755909e+000 -1.206034e+001
    endloop
  endfacet
  facet normal 8.164373e-001 -0.000000e+000 5.774341e-001
    outer loop
      vertex   -1.813880e+001 -7.957954e+000 -1.206034e+001
      vertex   -1.813880e+001 -5.755909e+000 -1.206034e+001
      vertex   -1.821343e+001 -7.957954e+000 -1.195482e+001
    endloop
  endfacet
  facet normal 7.604055e-001 -1.059715e-003 6.494477e-001
    outer loop
      vertex   -1.817953e+001 -1.016000e+001 -1.199811e+001
      vertex   -1.821343e+001 -7.957954e+000 -1.195482e+001
      vertex   -1.825718e+001 -1.016000e+001 -1.190718e+001
    endloop
  endfacet
  facet normal 8.164367e-001 1.218554e-003 5.774336e-001
    outer loop
      vertex   -1.817953e+001 -1.016000e+001 -1.199811e+001
      vertex   -1.813880e+001 -7.957954e+000 -1.206034e+001
      vertex   -1.821343e+001 -7.957954e+000 -1.195482e+001
    endloop
  endfacet
  facet normal 8.526397e-001 1.003585e-003 5.224983e-001
    outer loop
      vertex   -1.811705e+001 -3.553863e+000 -1.210006e+001
      vertex   -1.817953e+001 -3.553863e+000 -1.199811e+001
      vertex   -1.813880e+001 -5.755909e+000 -1.206034e+001
    endloop
  endfacet
  facet normal 8.164367e-001 -1.218554e-003 5.774336e-001
    outer loop
      vertex   -1.813880e+001 -5.755909e+000 -1.206034e+001
      vertex   -1.817953e+001 -3.553863e+000 -1.199811e+001
      vertex   -1.821343e+001 -5.755909e+000 -1.195482e+001
    endloop
  endfacet
  facet normal 7.071068e-001 -0.000000e+000 7.071068e-001
    outer loop
      vertex   -1.821343e+001 -7.957954e+000 -1.195482e+001
      vertex   -1.821343e+001 -5.755909e+000 -1.195482e+001
      vertex   -1.830482e+001 -7.957954e+000 -1.186343e+001
    endloop
  endfacet
  facet normal 6.494477e-001 -1.059715e-003 7.604055e-001
    outer loop
      vertex   -1.825718e+001 -1.016000e+001 -1.190718e+001
      vertex   -1.830482e+001 -7.957954e+000 -1.186343e+001
      vertex   -1.834811e+001 -1.016000e+001 -1.182953e+001
    endloop
  endfacet
  facet normal 7.071062e-001 1.246619e-003 7.071062e-001
    outer loop
      vertex   -1.825718e+001 -1.016000e+001 -1.190718e+001
      vertex   -1.821343e+001 -7.957954e+000 -1.195482e+001
      vertex   -1.830482e+001 -7.957954e+000 -1.186343e+001
    endloop
  endfacet
  facet normal 7.604055e-001 1.059715e-003 6.494477e-001
    outer loop
      vertex   -1.817953e+001 -3.553863e+000 -1.199811e+001
      vertex   -1.825718e+001 -3.553863e+000 -1.190718e+001
      vertex   -1.821343e+001 -5.755909e+000 -1.195482e+001
    endloop
  endfacet
  facet normal 7.071062e-001 -1.246619e-003 7.071062e-001
    outer loop
      vertex   -1.821343e+001 -5.755909e+000 -1.195482e+001
      vertex   -1.825718e+001 -3.553863e+000 -1.190718e+001
      vertex   -1.830482e+001 -5.755909e+000 -1.186343e+001
    endloop
  endfacet
  facet normal 5.774341e-001 -0.000000e+000 8.164373e-001
    outer loop
      vertex   -1.830482e+001 -7.957954e+000 -1.186343e+001
      vertex   -1.830482e+001 -5.755909e+000 -1.186343e+001
      vertex   -1.841034e+001 -7.957954e+000 -1.178880e+001
    endloop
  endfacet
  facet normal 5.224983e-001 -1.003585e-003 8.526397e-001
    outer loop
      vertex   -1.834811e+001 -1.016000e+001 -1.182953e+001
      vertex   -1.841034e+001 -7.957954e+000 -1.178880e+001
      vertex   -1.845006e+001 -1.016000e+001 -1.176705e+001
    endloop
  endfacet
  facet normal 5.774336e-001 1.218554e-003 8.164367e-001
    outer loop
      vertex   -1.834811e+001 -1.016000e+001 -1.182953e+001
      vertex   -1.830482e+001 -7.957954e+000 -1.186343e+001
      vertex   -1.841034e+001 -7.957954e+000 -1.178880e+001
    endloop
  endfacet
  facet normal 6.494477e-001 1.059715e-003 7.604055e-001
    outer loop
      vertex   -1.825718e+001 -3.553863e+000 -1.190718e+001
      vertex   -1.834811e+001 -3.553863e+000 -1.182953e+001
      vertex   -1.830482e+001 -5.755909e+000 -1.186343e+001
    endloop
  endfacet
  facet normal 5.774336e-001 -1.218554e-003 8.164367e-001
    outer loop
      vertex   -1.830482e+001 -5.755909e+000 -1.186343e+001
      vertex   -1.834811e+001 -3.553863e+000 -1.182953e+001
      vertex   -1.841034e+001 -5.755909e+000 -1.178880e+001
    endloop
  endfacet
  facet normal 4.311496e-001 -0.000000e+000 9.022804e-001
    outer loop
      vertex   -1.841034e+001 -7.957954e+000 -1.178880e+001
      vertex   -1.841034e+001 -5.755909e+000 -1.178880e+001
      vertex   -1.852695e+001 -7.957954e+000 -1.173308e+001
    endloop
  endfacet
  facet normal 3.826833e-001 -8.913348e-004 9.238792e-001
    outer loop
      vertex   -1.845006e+001 -1.016000e+001 -1.176705e+001
      vertex   -1.852695e+001 -7.957954e+000 -1.173308e+001
      vertex   -1.856053e+001 -1.016000e+001 -1.172129e+001
    endloop
  endfacet
  facet normal 4.311494e-001 1.134362e-003 9.022799e-001
    outer loop
      vertex   -1.845006e+001 -1.016000e+001 -1.176705e+001
      vertex   -1.841034e+001 -7.957954e+000 -1.178880e+001
      vertex   -1.852695e+001 -7.957954e+000 -1.173308e+001
    endloop
  endfacet
  facet normal 5.224983e-001 1.003585e-003 8.526397e-001
    outer loop
      vertex   -1.834811e+001 -3.553863e+000 -1.182953e+001
      vertex   -1.845006e+001 -3.553863e+000 -1.176705e+001
      vertex   -1.841034e+001 -5.755909e+000 -1.178880e+001
    endloop
  endfacet
  facet normal 4.311494e-001 -1.134362e-003 9.022799e-001
    outer loop
      vertex   -1.841034e+001 -5.755909e+000 -1.178880e+001
      vertex   -1.845006e+001 -3.553863e+000 -1.176705e+001
      vertex   -1.852695e+001 -5.755909e+000 -1.173308e+001
    endloop
  endfacet
  facet normal 2.724618e-001 -0.000000e+000 9.621666e-001
    outer loop
      vertex   -1.852695e+001 -7.957954e+000 -1.173308e+001
      vertex   -1.852695e+001 -5.755909e+000 -1.173308e+001
      vertex   -1.865131e+001 -7.957954e+000 -1.169786e+001
    endloop
  endfacet
  facet normal 2.334453e-001 -7.229823e-004 9.723697e-001
    outer loop
      vertex   -1.856053e+001 -1.016000e+001 -1.172129e+001
      vertex   -1.865131e+001 -7.957954e+000 -1.169786e+001
      vertex   -1.867680e+001 -1.016000e+001 -1.169338e+001
    endloop
  endfacet
  facet normal 2.724617e-001 9.940579e-004 9.621661e-001
    outer loop
      vertex   -1.856053e+001 -1.016000e+001 -1.172129e+001
      vertex   -1.852695e+001 -7.957954e+000 -1.173308e+001
      vertex   -1.865131e+001 -7.957954e+000 -1.169786e+001
    endloop
  endfacet
  facet normal 3.826833e-001 8.913348e-004 9.238792e-001
    outer loop
      vertex   -1.845006e+001 -3.553863e+000 -1.176705e+001
      vertex   -1.856053e+001 -3.553863e+000 -1.172129e+001
      vertex   -1.852695e+001 -5.755909e+000 -1.173308e+001
    endloop
  endfacet
  facet normal 2.724617e-001 -9.940579e-004 9.621661e-001
    outer loop
      vertex   -1.852695e+001 -5.755909e+000 -1.173308e+001
      vertex   -1.856053e+001 -3.553863e+000 -1.172129e+001
      vertex   -1.865131e+001 -5.755909e+000 -1.169786e+001
    endloop
  endfacet
  facet normal 1.059357e-001 -0.000000e+000 9.943730e-001
    outer loop
      vertex   -1.865131e+001 -7.957954e+000 -1.169786e+001
      vertex   -1.865131e+001 -5.755909e+000 -1.169786e+001
      vertex   -1.877983e+001 -7.957954e+000 -1.168417e+001
    endloop
  endfacet
  facet normal 7.845909e-002 -4.985546e-004 9.969172e-001
    outer loop
      vertex   -1.867680e+001 -1.016000e+001 -1.169338e+001
      vertex   -1.877983e+001 -7.957954e+000 -1.168417e+001
      vertex   -1.879600e+001 -1.016000e+001 -1.168400e+001
    endloop
  endfacet
  facet normal 1.059357e-001 7.976639e-004 9.943727e-001
    outer loop
      vertex   -1.867680e+001 -1.016000e+001 -1.169338e+001
      vertex   -1.865131e+001 -7.957954e+000 -1.169786e+001
      vertex   -1.877983e+001 -7.957954e+000 -1.168417e+001
    endloop
  endfacet
  facet normal 2.334453e-001 7.229823e-004 9.723697e-001
    outer loop
      vertex   -1.856053e+001 -3.553863e+000 -1.172129e+001
      vertex   -1.867680e+001 -3.553863e+000 -1.169338e+001
      vertex   -1.865131e+001 -5.755909e+000 -1.169786e+001
    endloop
  endfacet
  facet normal 1.059357e-001 -7.976639e-004 9.943727e-001
    outer loop
      vertex   -1.865131e+001 -5.755909e+000 -1.169786e+001
      vertex   -1.867680e+001 -3.553863e+000 -1.169338e+001
      vertex   -1.877983e+001 -5.755909e+000 -1.168417e+001
    endloop
  endfacet
  facet normal 1.061329e-002 -0.000000e+000 9.999437e-001
    outer loop
      vertex   -1.877983e+001 -7.957954e+000 -1.168417e+001
      vertex   -1.877983e+001 -5.755909e+000 -1.168417e+001
      vertex   -1.879600e+001 -1.016000e+001 -1.168400e+001
    endloop
  endfacet
  facet normal 1.059357e-001 0.000000e+000 9.943730e-001
    outer loop
      vertex   -1.877983e+001 -7.957954e+000 -1.168417e+001
      vertex   -1.865131e+001 -5.755909e+000 -1.169786e+001
      vertex   -1.877983e+001 -5.755909e+000 -1.168417e+001
    endloop
  endfacet
  facet normal 7.845909e-002 4.985546e-004 9.969172e-001
    outer loop
      vertex   -1.867680e+001 -3.553863e+000 -1.169338e+001
      vertex   -1.879600e+001 -3.553863e+000 -1.168400e+001
      vertex   -1.877983e+001 -5.755909e+000 -1.168417e+001
    endloop
  endfacet
  facet normal 1.061329e-002 0.000000e+000 9.999437e-001
    outer loop
      vertex   -1.877983e+001 -5.755909e+000 -1.168417e+001
      vertex   -1.879600e+001 -3.553863e+000 -1.168400e+001
      vertex   -1.879600e+001 -1.016000e+001 -1.168400e+001
    endloop
  endfacet
  facet normal 9.723697e-001 -7.229823e-004 2.334453e-001
    outer loop
      vertex   -1.807129e+001 -1.016000e+001 -1.221053e+001
      vertex   -1.804338e+001 -1.016000e+001 -1.232680e+001
      vertex   -1.804786e+001 -7.957954e+000 -1.230131e+001
    endloop
  endfacet
  facet normal 9.943727e-001 7.976639e-004 1.059357e-001
    outer loop
      vertex   -1.804786e+001 -7.957954e+000 -1.230131e+001
      vertex   -1.804338e+001 -1.016000e+001 -1.232680e+001
      vertex   -1.803417e+001 -7.957954e+000 -1.242983e+001
    endloop
  endfacet
  facet normal 9.999437e-001 0.000000e+000 1.061329e-002
    outer loop
      vertex   -1.803417e+001 -5.755909e+000 -1.242983e+001
      vertex   -1.803417e+001 -7.957954e+000 -1.242983e+001
      vertex   -1.803400e+001 -3.553863e+000 -1.244600e+001
    endloop
  endfacet
  facet normal 9.943730e-001 0.000000e+000 1.059357e-001
    outer loop
      vertex   -1.803417e+001 -5.755909e+000 -1.242983e+001
      vertex   -1.804786e+001 -7.957954e+000 -1.230131e+001
      vertex   -1.803417e+001 -7.957954e+000 -1.242983e+001
    endloop
  endfacet
  facet normal 9.969172e-001 -4.985546e-004 7.845909e-002
    outer loop
      vertex   -1.804338e+001 -1.016000e+001 -1.232680e+001
      vertex   -1.803400e+001 -1.016000e+001 -1.244600e+001
      vertex   -1.803417e+001 -7.957954e+000 -1.242983e+001
    endloop
  endfacet
  facet normal 9.999437e-001 -0.000000e+000 1.061329e-002
    outer loop
      vertex   -1.803417e+001 -7.957954e+000 -1.242983e+001
      vertex   -1.803400e+001 -1.016000e+001 -1.244600e+001
      vertex   -1.803400e+001 -3.553863e+000 -1.244600e+001
    endloop
  endfacet
  facet normal 9.022804e-001 0.000000e+000 4.311496e-001
    outer loop
      vertex   -1.813880e+001 -5.755909e+000 -1.206034e+001
      vertex   -1.813880e+001 -7.957954e+000 -1.206034e+001
      vertex   -1.808308e+001 -5.755909e+000 -1.217695e+001
    endloop
  endfacet
  facet normal 8.164373e-001 0.000000e+000 5.774341e-001
    outer loop
      vertex   -1.821343e+001 -5.755909e+000 -1.195482e+001
      vertex   -1.821343e+001 -7.957954e+000 -1.195482e+001
      vertex   -1.813880e+001 -5.755909e+000 -1.206034e+001
    endloop
  endfacet
  facet normal 7.071068e-001 0.000000e+000 7.071068e-001
    outer loop
      vertex   -1.830482e+001 -5.755909e+000 -1.186343e+001
      vertex   -1.830482e+001 -7.957954e+000 -1.186343e+001
      vertex   -1.821343e+001 -5.755909e+000 -1.195482e+001
    endloop
  endfacet
  facet normal 5.774341e-001 0.000000e+000 8.164373e-001
    outer loop
      vertex   -1.841034e+001 -5.755909e+000 -1.178880e+001
      vertex   -1.841034e+001 -7.957954e+000 -1.178880e+001
      vertex   -1.830482e+001 -5.755909e+000 -1.186343e+001
    endloop
  endfacet
  facet normal 4.311496e-001 0.000000e+000 9.022804e-001
    outer loop
      vertex   -1.852695e+001 -5.755909e+000 -1.173308e+001
      vertex   -1.852695e+001 -7.957954e+000 -1.173308e+001
      vertex   -1.841034e+001 -5.755909e+000 -1.178880e+001
    endloop
  endfacet
  facet normal 2.724618e-001 0.000000e+000 9.621666e-001
    outer loop
      vertex   -1.865131e+001 -5.755909e+000 -1.169786e+001
      vertex   -1.865131e+001 -7.957954e+000 -1.169786e+001
      vertex   -1.852695e+001 -5.755909e+000 -1.173308e+001
    endloop
  endfacet
  facet normal 0.000000e+000 -0.000000e+000 1.000000e+000
    outer loop
      vertex   -1.879600e+001 -1.016000e+001 -1.168400e+001
      vertex   -1.879600e+001 -3.553863e+000 -1.168400e+001
      vertex   -2.032000e+001 -1.016000e+001 -1.168400e+001
    endloop
  endfacet
  facet normal 0.000000e+000 -0.000000e+000 1.000000e+000
    outer loop
      vertex   -2.032000e+001 -1.016000e+001 -1.168400e+001
      vertex   -1.879600e+001 -3.553863e+000 -1.168400e+001
      vertex   -2.032000e+001 -3.553863e+000 -1.168400e+001
    endloop
  endfacet
  facet normal 2.462511e-017 1.942647e-016 -1.000000e+000
    outer loop
      vertex   0.000000e+000 -1.267863e+000 -2.286000e+000
      vertex   0.000000e+000 -3.553863e+000 -2.286000e+000
      vertex   -1.803400e+001 -1.267863e+000 -2.286000e+000
    endloop
  endfacet
  facet normal -0.000000e+000 -0.000000e+000 -1.000000e+000
    outer loop
      vertex   -1.803400e+001 -1.267863e+000 -2.286000e+000
      vertex   0.000000e+000 -3.553863e+000 -2.286000e+000
      vertex   -1.803400e+001 -3.553863e+000 -2.286000e+000
    endloop
  endfacet
  facet normal 0.000000e+000 -0.000000e+000 1.000000e+000
    outer loop
      vertex   0.000000e+000 -3.553863e+000 -1.168400e+001
      vertex   0.000000e+000 -1.267863e+000 -1.168400e+001
      vertex   -1.803400e+001 -3.553863e+000 -1.168400e+001
    endloop
  endfacet
  facet normal 0.000000e+000 -0.000000e+000 1.000000e+000
    outer loop
      vertex   -1.803400e+001 -3.553863e+000 -1.168400e+001
      vertex   0.000000e+000 -1.267863e+000 -1.168400e+001
      vertex   -1.803400e+001 -1.267863e+000 -1.168400e+001
    endloop
  endfacet
  facet normal 1.000000e+000 0.000000e+000 -0.000000e+000
    outer loop
      vertex   -1.803400e+001 -3.553863e+000 -1.168400e+001
      vertex   -1.803400e+001 -1.267863e+000 -1.168400e+001
      vertex   -1.803400e+001 -3.553863e+000 -2.286000e+000
    endloop
  endfacet
  facet normal 1.000000e+000 -0.000000e+000 0.000000e+000
    outer loop
      vertex   -1.803400e+001 -3.553863e+000 -2.286000e+000
      vertex   -1.803400e+001 -1.267863e+000 -1.168400e+001
      vertex   -1.803400e+001 -1.267863e+000 -2.286000e+000
    endloop
  endfacet
  facet normal 1.000000e+000 0.000000e+000 -0.000000e+000
    outer loop
      vertex   0.000000e+000 -3.553863e+000 -2.286000e+000
      vertex   0.000000e+000 -1.267863e+000 -2.286000e+000
      vertex   0.000000e+000 -3.553863e+000 2.540000e-001
    endloop
  endfacet
  facet normal 1.000000e+000 -0.000000e+000 0.000000e+000
    outer loop
      vertex   0.000000e+000 -3.553863e+000 2.540000e-001
      vertex   0.000000e+000 -1.267863e+000 -2.286000e+000
      vertex   0.000000e+000 -1.267863e+000 1.016000e+000
    endloop
  endfacet
  facet normal 1.000000e+000 -0.000000e+000 0.000000e+000
    outer loop
      vertex   0.000000e+000 -1.016000e+001 1.016000e+000
      vertex   0.000000e+000 -3.553863e+000 2.540000e-001
      vertex   0.000000e+000 -1.267863e+000 1.016000e+000
    endloop
  endfacet
  facet normal 1.000000e+000 -0.000000e+000 0.000000e+000
    outer loop
      vertex   0.000000e+000 -1.016000e+001 1.016000e+000
      vertex   0.000000e+000 -1.016000e+001 2.540000e-001
      vertex   0.000000e+000 -3.553863e+000 2.540000e-001
    endloop
  endfacet
  facet normal 1.000000e+000 -0.000000e+000 0.000000e+000
    outer loop
      vertex   0.000000e+000 -3.553863e+000 -1.168400e+001
      vertex   0.000000e+000 -3.553863e+000 -1.422400e+001
      vertex   0.000000e+000 -1.267863e+000 -1.168400e+001
    endloop
  endfacet
  facet normal 1.000000e+000 0.000000e+000 0.000000e+000
    outer loop
      vertex   0.000000e+000 -1.267863e+000 -1.168400e+001
      vertex   0.000000e+000 -3.553863e+000 -1.422400e+001
      vertex   0.000000e+000 -1.267863e+000 -1.498600e+001
    endloop
  endfacet
  facet normal 1.000000e+000 0.000000e+000 0.000000e+000
    outer loop
      vertex   0.000000e+000 -1.267863e+000 -1.498600e+001
      vertex   0.000000e+000 -3.553863e+000 -1.422400e+001
      vertex   0.000000e+000 -1.016000e+001 -1.498600e+001
    endloop
  endfacet
  facet normal 1.000000e+000 0.000000e+000 -0.000000e+000
    outer loop
      vertex   0.000000e+000 -1.016000e+001 -1.498600e+001
      vertex   0.000000e+000 -3.553863e+000 -1.422400e+001
      vertex   0.000000e+000 -1.016000e+001 -1.422400e+001
    endloop
  endfacet
  facet normal 0.000000e+000 -1.000000e+000 -1.417608e-016
    outer loop
      vertex   -1.803400e+001 -3.553863e+000 -2.286000e+000
      vertex   -1.879600e+001 -3.553863e+000 -1.168400e+001
      vertex   -1.803400e+001 -3.553863e+000 -1.168400e+001
    endloop
  endfacet
  facet normal -0.000000e+000 -1.000000e+000 -1.417608e-016
    outer loop
      vertex   -1.803400e+001 -3.553863e+000 -2.286000e+000
      vertex   -1.879600e+001 -3.553863e+000 -2.286000e+000
      vertex   -1.879600e+001 -3.553863e+000 -1.168400e+001
    endloop
  endfacet
  facet normal 0.000000e+000 -1.000000e+000 -9.467355e-014
    outer loop
      vertex   -1.803400e+001 -3.553863e+000 -2.286000e+000
      vertex   -1.867680e+001 -3.553863e+000 -2.276619e+000
      vertex   -1.879600e+001 -3.553863e+000 -2.286000e+000
    endloop
  endfacet
  facet normal 1.302556e-015 -1.000000e+000 -5.425535e-015
    outer loop
      vertex   -1.803400e+001 -3.553863e+000 -2.286000e+000
      vertex   -1.856053e+001 -3.553863e+000 -2.248705e+000
      vertex   -1.867680e+001 -3.553863e+000 -2.276619e+000
    endloop
  endfacet
  facet normal 1.440522e-015 -1.000000e+000 -3.477728e-015
    outer loop
      vertex   -1.803400e+001 -3.553863e+000 -2.286000e+000
      vertex   -1.845006e+001 -3.553863e+000 -2.202947e+000
      vertex   -1.856053e+001 -3.553863e+000 -2.248705e+000
    endloop
  endfacet
  facet normal 1.610216e-015 -1.000000e+000 -2.627634e-015
    outer loop
      vertex   -1.803400e+001 -3.553863e+000 -2.286000e+000
      vertex   -1.834811e+001 -3.553863e+000 -2.140471e+000
      vertex   -1.845006e+001 -3.553863e+000 -2.202947e+000
    endloop
  endfacet
  facet normal 1.833185e-015 -1.000000e+000 -2.146383e-015
    outer loop
      vertex   -1.803400e+001 -3.553863e+000 -2.286000e+000
      vertex   -1.825718e+001 -3.553863e+000 -2.062815e+000
      vertex   -1.834811e+001 -3.553863e+000 -2.140471e+000
    endloop
  endfacet
  facet normal 2.146383e-015 -1.000000e+000 -1.833185e-015
    outer loop
      vertex   -1.803400e+001 -3.553863e+000 -2.286000e+000
      vertex   -1.817953e+001 -3.553863e+000 -1.971892e+000
      vertex   -1.825718e+001 -3.553863e+000 -2.062815e+000
    endloop
  endfacet
  facet normal 2.627634e-015 -1.000000e+000 -1.610216e-015
    outer loop
      vertex   -1.803400e+001 -3.553863e+000 -2.286000e+000
      vertex   -1.811705e+001 -3.553863e+000 -1.869941e+000
      vertex   -1.817953e+001 -3.553863e+000 -1.971892e+000
    endloop
  endfacet
  facet normal 3.477728e-015 -1.000000e+000 -1.440522e-015
    outer loop
      vertex   -1.803400e+001 -3.553863e+000 -2.286000e+000
      vertex   -1.807129e+001 -3.553863e+000 -1.759471e+000
      vertex   -1.811705e+001 -3.553863e+000 -1.869941e+000
    endloop
  endfacet
  facet normal 5.425535e-015 -1.000000e+000 -1.302556e-015
    outer loop
      vertex   -1.803400e+001 -3.553863e+000 -2.286000e+000
      vertex   -1.804338e+001 -3.553863e+000 -1.643203e+000
      vertex   -1.807129e+001 -3.553863e+000 -1.759471e+000
    endloop
  endfacet
  facet normal 9.467355e-014 -1.000000e+000 0.000000e+000
    outer loop
      vertex   -1.803400e+001 -3.553863e+000 -2.286000e+000
      vertex   -1.803400e+001 -3.553863e+000 -1.524000e+000
      vertex   -1.804338e+001 -3.553863e+000 -1.643203e+000
    endloop
  endfacet
  facet normal 0.000000e+000 -1.000000e+000 0.000000e+000
    outer loop
      vertex   -1.803400e+001 -3.553863e+000 -2.286000e+000
      vertex   0.000000e+000 -3.553863e+000 -2.286000e+000
      vertex   -1.803400e+001 -3.553863e+000 -1.524000e+000
    endloop
  endfacet
  facet normal 0.000000e+000 -1.000000e+000 0.000000e+000
    outer loop
      vertex   -1.803400e+001 -3.553863e+000 -1.524000e+000
      vertex   0.000000e+000 -3.553863e+000 -2.286000e+000
      vertex   0.000000e+000 -3.553863e+000 2.540000e-001
    endloop
  endfacet
  facet normal 0.000000e+000 -1.000000e+000 0.000000e+000
    outer loop
      vertex   -1.803400e+001 -3.553863e+000 2.540000e-001
      vertex   -1.803400e+001 -3.553863e+000 -1.524000e+000
      vertex   0.000000e+000 -3.553863e+000 2.540000e-001
    endloop
  endfacet
  facet normal 0.000000e+000 -1.000000e+000 -1.417608e-016
    outer loop
      vertex   -2.032000e+001 -3.553863e+000 -2.286000e+000
      vertex   -2.032000e+001 -3.553863e+000 -1.168400e+001
      vertex   -1.879600e+001 -3.553863e+000 -2.286000e+000
    endloop
  endfacet
  facet normal 0.000000e+000 -1.000000e+000 -1.417608e-016
    outer loop
      vertex   -1.879600e+001 -3.553863e+000 -2.286000e+000
      vertex   -2.032000e+001 -3.553863e+000 -1.168400e+001
      vertex   -1.879600e+001 -3.553863e+000 -1.168400e+001
    endloop
  endfacet
  facet normal 0.000000e+000 -1.000000e+000 0.000000e+000
    outer loop
      vertex   -1.879600e+001 -3.553863e+000 -1.168400e+001
      vertex   -1.867680e+001 -3.553863e+000 -1.169338e+001
      vertex   -1.803400e+001 -3.553863e+000 -1.168400e+001
    endloop
  endfacet
  facet normal 0.000000e+000 -1.000000e+000 -0.000000e+000
    outer loop
      vertex   -1.803400e+001 -3.553863e+000 -1.168400e+001
      vertex   -1.867680e+001 -3.553863e+000 -1.169338e+001
      vertex   -1.856053e+001 -3.553863e+000 -1.172129e+001
    endloop
  endfacet
  facet normal -0.000000e+000 -1.000000e+000 0.000000e+000
    outer loop
      vertex   -1.845006e+001 -3.553863e+000 -1.176705e+001
      vertex   -1.803400e+001 -3.553863e+000 -1.168400e+001
      vertex   -1.856053e+001 -3.553863e+000 -1.172129e+001
    endloop
  endfacet
  facet normal 0.000000e+000 -1.000000e+000 0.000000e+000
    outer loop
      vertex   -1.845006e+001 -3.553863e+000 -1.176705e+001
      vertex   -1.834811e+001 -3.553863e+000 -1.182953e+001
      vertex   -1.803400e+001 -3.553863e+000 -1.168400e+001
    endloop
  endfacet
  facet normal 0.000000e+000 -1.000000e+000 -0.000000e+000
    outer loop
      vertex   -1.803400e+001 -3.553863e+000 -1.168400e+001
      vertex   -1.834811e+001 -3.553863e+000 -1.182953e+001
      vertex   -1.825718e+001 -3.553863e+000 -1.190718e+001
    endloop
  endfacet
  facet normal -0.000000e+000 -1.000000e+000 0.000000e+000
    outer loop
      vertex   -1.817953e+001 -3.553863e+000 -1.199811e+001
      vertex   -1.803400e+001 -3.553863e+000 -1.168400e+001
      vertex   -1.825718e+001 -3.553863e+000 -1.190718e+001
    endloop
  endfacet
  facet normal 0.000000e+000 -1.000000e+000 0.000000e+000
    outer loop
      vertex   -1.817953e+001 -3.553863e+000 -1.199811e+001
      vertex   -1.811705e+001 -3.553863e+000 -1.210006e+001
      vertex   -1.803400e+001 -3.553863e+000 -1.168400e+001
    endloop
  endfacet
  facet normal 0.000000e+000 -1.000000e+000 -0.000000e+000
    outer loop
      vertex   -1.803400e+001 -3.553863e+000 -1.168400e+001
      vertex   -1.811705e+001 -3.553863e+000 -1.210006e+001
      vertex   -1.807129e+001 -3.553863e+000 -1.221053e+001
    endloop
  endfacet
  facet normal -0.000000e+000 -1.000000e+000 0.000000e+000
    outer loop
      vertex   -1.804338e+001 -3.553863e+000 -1.232680e+001
      vertex   -1.803400e+001 -3.553863e+000 -1.168400e+001
      vertex   -1.807129e+001 -3.553863e+000 -1.221053e+001
    endloop
  endfacet
  facet normal 0.000000e+000 -1.000000e+000 0.000000e+000
    outer loop
      vertex   -1.804338e+001 -3.553863e+000 -1.232680e+001
      vertex   -1.803400e+001 -3.553863e+000 -1.244600e+001
      vertex   -1.803400e+001 -3.553863e+000 -1.168400e+001
    endloop
  endfacet
  facet normal 0.000000e+000 -1.000000e+000 0.000000e+000
    outer loop
      vertex   -1.803400e+001 -3.553863e+000 -1.168400e+001
      vertex   -1.803400e+001 -3.553863e+000 -1.244600e+001
      vertex   0.000000e+000 -3.553863e+000 -1.168400e+001
    endloop
  endfacet
  facet normal 0.000000e+000 -1.000000e+000 -0.000000e+000
    outer loop
      vertex   0.000000e+000 -3.553863e+000 -1.168400e+001
      vertex   -1.803400e+001 -3.553863e+000 -1.244600e+001
      vertex   0.000000e+000 -3.553863e+000 -1.422400e+001
    endloop
  endfacet
  facet normal -0.000000e+000 -1.000000e+000 -0.000000e+000
    outer loop
      vertex   0.000000e+000 -3.553863e+000 -1.422400e+001
      vertex   -1.803400e+001 -3.553863e+000 -1.244600e+001
      vertex   -1.803400e+001 -3.553863e+000 -1.422400e+001
    endloop
  endfacet
  facet normal 0.000000e+000 -0.000000e+000 1.000000e+000
    outer loop
      vertex   0.000000e+000 -1.016000e+001 -1.422400e+001
      vertex   0.000000e+000 -3.553863e+000 -1.422400e+001
      vertex   -1.803400e+001 -1.016000e+001 -1.422400e+001
    endloop
  endfacet
  facet normal 0.000000e+000 -0.000000e+000 1.000000e+000
    outer loop
      vertex   -1.803400e+001 -1.016000e+001 -1.422400e+001
      vertex   0.000000e+000 -3.553863e+000 -1.422400e+001
      vertex   -1.803400e+001 -3.553863e+000 -1.422400e+001
    endloop
  endfacet
  facet normal 1.000000e+000 0.000000e+000 0.000000e+000
    outer loop
      vertex   -1.803400e+001 -3.553863e+000 -1.244600e+001
      vertex   -1.803400e+001 -1.016000e+001 -1.244600e+001
      vertex   -1.803400e+001 -3.553863e+000 -1.422400e+001
    endloop
  endfacet
  facet normal 1.000000e+000 0.000000e+000 0.000000e+000
    outer loop
      vertex   -1.803400e+001 -3.553863e+000 -1.422400e+001
      vertex   -1.803400e+001 -1.016000e+001 -1.244600e+001
      vertex   -1.803400e+001 -1.016000e+001 -1.422400e+001
    endloop
  endfacet
  facet normal -3.078139e-018 -0.000000e+000 -1.000000e+000
    outer loop
      vertex   0.000000e+000 -3.553863e+000 2.540000e-001
      vertex   0.000000e+000 -1.016000e+001 2.540000e-001
      vertex   -1.803400e+001 -3.553863e+000 2.540000e-001
    endloop
  endfacet
  facet normal -3.078139e-018 0.000000e+000 -1.000000e+000
    outer loop
      vertex   -1.803400e+001 -3.553863e+000 2.540000e-001
      vertex   0.000000e+000 -1.016000e+001 2.540000e-001
      vertex   -1.803400e+001 -1.016000e+001 2.540000e-001
    endloop
  endfacet
  facet normal 0.000000e+000 -1.000000e+000 0.000000e+000
    outer loop
      vertex   -1.803400e+001 -1.016000e+001 -1.422400e+001
      vertex   -1.803400e+001 -1.016000e+001 -1.244600e+001
      vertex   -2.032000e+001 -1.016000e+001 -1.168400e+001
    endloop
  endfacet
  facet normal 0.000000e+000 -1.000000e+000 0.000000e+000
    outer loop
      vertex   -2.032000e+001 -1.016000e+001 -1.498600e+001
      vertex   -1.803400e+001 -1.016000e+001 -1.422400e+001
      vertex   -2.032000e+001 -1.016000e+001 -1.168400e+001
    endloop
  endfacet
  facet normal 0.000000e+000 -1.000000e+000 0.000000e+000
    outer loop
      vertex   -2.032000e+001 -1.016000e+001 -1.498600e+001
      vertex   0.000000e+000 -1.016000e+001 -1.498600e+001
      vertex   -1.803400e+001 -1.016000e+001 -1.422400e+001
    endloop
  endfacet
  facet normal 0.000000e+000 -1.000000e+000 0.000000e+000
    outer loop
      vertex   -1.803400e+001 -1.016000e+001 -1.422400e+001
      vertex   0.000000e+000 -1.016000e+001 -1.498600e+001
      vertex   0.000000e+000 -1.016000e+001 -1.422400e+001
    endloop
  endfacet
  facet normal 0.000000e+000 -1.000000e+000 0.000000e+000
    outer loop
      vertex   -1.803400e+001 -1.016000e+001 -1.244600e+001
      vertex   -1.804338e+001 -1.016000e+001 -1.232680e+001
      vertex   -2.032000e+001 -1.016000e+001 -1.168400e+001
    endloop
  endfacet
  facet normal 0.000000e+000 -1.000000e+000 0.000000e+000
    outer loop
      vertex   -2.032000e+001 -1.016000e+001 -1.168400e+001
      vertex   -1.804338e+001 -1.016000e+001 -1.232680e+001
      vertex   -1.807129e+001 -1.016000e+001 -1.221053e+001
    endloop
  endfacet
  facet normal -0.000000e+000 -1.000000e+000 -0.000000e+000
    outer loop
      vertex   -1.811705e+001 -1.016000e+001 -1.210006e+001
      vertex   -2.032000e+001 -1.016000e+001 -1.168400e+001
      vertex   -1.807129e+001 -1.016000e+001 -1.221053e+001
    endloop
  endfacet
  facet normal 0.000000e+000 -1.000000e+000 0.000000e+000
    outer loop
      vertex   -1.811705e+001 -1.016000e+001 -1.210006e+001
      vertex   -1.817953e+001 -1.016000e+001 -1.199811e+001
      vertex   -2.032000e+001 -1.016000e+001 -1.168400e+001
    endloop
  endfacet
  facet normal 0.000000e+000 -1.000000e+000 0.000000e+000
    outer loop
      vertex   -2.032000e+001 -1.016000e+001 -1.168400e+001
      vertex   -1.817953e+001 -1.016000e+001 -1.199811e+001
      vertex   -1.825718e+001 -1.016000e+001 -1.190718e+001
    endloop
  endfacet
  facet normal -0.000000e+000 -1.000000e+000 -0.000000e+000
    outer loop
      vertex   -1.834811e+001 -1.016000e+001 -1.182953e+001
      vertex   -2.032000e+001 -1.016000e+001 -1.168400e+001
      vertex   -1.825718e+001 -1.016000e+001 -1.190718e+001
    endloop
  endfacet
  facet normal 0.000000e+000 -1.000000e+000 0.000000e+000
    outer loop
      vertex   -1.834811e+001 -1.016000e+001 -1.182953e+001
      vertex   -1.845006e+001 -1.016000e+001 -1.176705e+001
      vertex   -2.032000e+001 -1.016000e+001 -1.168400e+001
    endloop
  endfacet
  facet normal 0.000000e+000 -1.000000e+000 0.000000e+000
    outer loop
      vertex   -2.032000e+001 -1.016000e+001 -1.168400e+001
      vertex   -1.845006e+001 -1.016000e+001 -1.176705e+001
      vertex   -1.879600e+001 -1.016000e+001 -1.168400e+001
    endloop
  endfacet
  facet normal 0.000000e+000 -1.000000e+000 0.000000e+000
    outer loop
      vertex   -1.879600e+001 -1.016000e+001 -1.168400e+001
      vertex   -1.845006e+001 -1.016000e+001 -1.176705e+001
      vertex   -1.856053e+001 -1.016000e+001 -1.172129e+001
    endloop
  endfacet
  facet normal -0.000000e+000 -1.000000e+000 -0.000000e+000
    outer loop
      vertex   -1.867680e+001 -1.016000e+001 -1.169338e+001
      vertex   -1.879600e+001 -1.016000e+001 -1.168400e+001
      vertex   -1.856053e+001 -1.016000e+001 -1.172129e+001
    endloop
  endfacet
  facet normal -0.000000e+000 -0.000000e+000 -1.000000e+000
    outer loop
      vertex   -1.879600e+001 -3.553863e+000 -2.286000e+000
      vertex   -1.879600e+001 -1.016000e+001 -2.286000e+000
      vertex   -2.032000e+001 -3.553863e+000 -2.286000e+000
    endloop
  endfacet
  facet normal -0.000000e+000 -0.000000e+000 -1.000000e+000
    outer loop
      vertex   -2.032000e+001 -3.553863e+000 -2.286000e+000
      vertex   -1.879600e+001 -1.016000e+001 -2.286000e+000
      vertex   -2.032000e+001 -1.016000e+001 -2.286000e+000
    endloop
  endfacet
  facet normal 0.000000e+000 -0.000000e+000 1.000000e+000
    outer loop
      vertex   0.000000e+000 -1.016000e+001 1.016000e+000
      vertex   0.000000e+000 -1.267863e+000 1.016000e+000
      vertex   -2.032000e+001 -1.016000e+001 1.016000e+000
    endloop
  endfacet
  facet normal 0.000000e+000 -0.000000e+000 1.000000e+000
    outer loop
      vertex   -2.032000e+001 -1.016000e+001 1.016000e+000
      vertex   0.000000e+000 -1.267863e+000 1.016000e+000
      vertex   -2.032000e+001 -1.267863e+000 1.016000e+000
    endloop
  endfacet
  facet normal -0.000000e+000 -0.000000e+000 -1.000000e+000
    outer loop
      vertex   0.000000e+000 -1.267863e+000 -1.498600e+001
      vertex   0.000000e+000 -1.016000e+001 -1.498600e+001
      vertex   -2.032000e+001 -1.267863e+000 -1.498600e+001
    endloop
  endfacet
  facet normal -0.000000e+000 -0.000000e+000 -1.000000e+000
    outer loop
      vertex   -2.032000e+001 -1.267863e+000 -1.498600e+001
      vertex   0.000000e+000 -1.016000e+001 -1.498600e+001
      vertex   -2.032000e+001 -1.016000e+001 -1.498600e+001
    endloop
  endfacet
  facet normal 0.000000e+000 1.000000e+000 0.000000e+000
    outer loop
      vertex   0.000000e+000 -1.267863e+000 -1.168400e+001
      vertex   0.000000e+000 -1.267863e+000 -1.498600e+001
      vertex   -1.803400e+001 -1.267863e+000 -1.168400e+001
    endloop
  endfacet
  facet normal 0.000000e+000 1.000000e+000 0.000000e+000
    outer loop
      vertex   -1.803400e+001 -1.267863e+000 -1.168400e+001
      vertex   0.000000e+000 -1.267863e+000 -1.498600e+001
      vertex   -2.032000e+001 -1.267863e+000 -1.498600e+001
    endloop
  endfacet
  facet normal 0.000000e+000 1.000000e+000 0.000000e+000
    outer loop
      vertex   -2.032000e+001 -1.267863e+000 1.016000e+000
      vertex   -1.803400e+001 -1.267863e+000 -1.168400e+001
      vertex   -2.032000e+001 -1.267863e+000 -1.498600e+001
    endloop
  endfacet
  facet normal 0.000000e+000 1.000000e+000 0.000000e+000
    outer loop
      vertex   -2.032000e+001 -1.267863e+000 1.016000e+000
      vertex   -1.803400e+001 -1.267863e+000 -2.286000e+000
      vertex   -1.803400e+001 -1.267863e+000 -1.168400e+001
    endloop
  endfacet
  facet normal -0.000000e+000 1.000000e+000 0.000000e+000
    outer loop
      vertex   -2.032000e+001 -1.267863e+000 1.016000e+000
      vertex   0.000000e+000 -1.267863e+000 1.016000e+000
      vertex   -1.803400e+001 -1.267863e+000 -2.286000e+000
    endloop
  endfacet
  facet normal -0.000000e+000 1.000000e+000 0.000000e+000
    outer loop
      vertex   -1.803400e+001 -1.267863e+000 -2.286000e+000
      vertex   0.000000e+000 -1.267863e+000 1.016000e+000
      vertex   0.000000e+000 -1.267863e+000 -2.286000e+000
    endloop
  endfacet
  facet normal -1.000000e+000 0.000000e+000 0.000000e+000
    outer loop
      vertex   -2.032000e+001 -1.267863e+000 -1.498600e+001
      vertex   -2.032000e+001 -3.553863e+000 -1.168400e+001
      vertex   -2.032000e+001 -1.267863e+000 1.016000e+000
    endloop
  endfacet
  facet normal -1.000000e+000 0.000000e+000 0.000000e+000
    outer loop
      vertex   -2.032000e+001 -1.267863e+000 -1.498600e+001
      vertex   -2.032000e+001 -1.016000e+001 -1.498600e+001
      vertex   -2.032000e+001 -3.553863e+000 -1.168400e+001
    endloop
  endfacet
  facet normal -1.000000e+000 -0.000000e+000 0.000000e+000
    outer loop
      vertex   -2.032000e+001 -3.553863e+000 -1.168400e+001
      vertex   -2.032000e+001 -1.016000e+001 -1.498600e+001
      vertex   -2.032000e+001 -1.016000e+001 -1.168400e+001
    endloop
  endfacet
  facet normal -1.000000e+000 0.000000e+000 0.000000e+000
    outer loop
      vertex   -2.032000e+001 -3.553863e+000 -1.168400e+001
      vertex   -2.032000e+001 -3.553863e+000 -2.286000e+000
      vertex   -2.032000e+001 -1.267863e+000 1.016000e+000
    endloop
  endfacet
  facet normal -1.000000e+000 -0.000000e+000 0.000000e+000
    outer loop
      vertex   -2.032000e+001 -1.267863e+000 1.016000e+000
      vertex   -2.032000e+001 -3.553863e+000 -2.286000e+000
      vertex   -2.032000e+001 -1.016000e+001 1.016000e+000
    endloop
  endfacet
  facet normal -1.000000e+000 -0.000000e+000 -0.000000e+000
    outer loop
      vertex   -2.032000e+001 -1.016000e+001 1.016000e+000
      vertex   -2.032000e+001 -3.553863e+000 -2.286000e+000
      vertex   -2.032000e+001 -1.016000e+001 -2.286000e+000
    endloop
  endfacet
endsolid
