solid ascii
  facet normal -0.000000e+000 0.000000e+000 1.000000e+000
    outer loop
      vertex   -1.320800e+001 1.750060e+001 0.000000e+000
      vertex   -1.524000e+001 0.000000e+000 0.000000e+000
      vertex   -1.320800e+001 2.819400e+000 0.000000e+000
    endloop
  endfacet
  facet normal 0.000000e+000 0.000000e+000 1.000000e+000
    outer loop
      vertex   -1.320800e+001 1.750060e+001 0.000000e+000
      vertex   -1.524000e+001 2.032000e+001 0.000000e+000
      vertex   -1.524000e+001 0.000000e+000 0.000000e+000
    endloop
  endfacet
  facet normal 0.000000e+000 -0.000000e+000 1.000000e+000
    outer loop
      vertex   -1.320800e+001 1.750060e+001 0.000000e+000
      vertex   0.000000e+000 2.032000e+001 0.000000e+000
      vertex   -1.524000e+001 2.032000e+001 0.000000e+000
    endloop
  endfacet
  facet normal 0.000000e+000 0.000000e+000 1.000000e+000
    outer loop
      vertex   -1.320800e+001 1.750060e+001 0.000000e+000
      vertex   0.000000e+000 1.750060e+001 0.000000e+000
      vertex   0.000000e+000 2.032000e+001 0.000000e+000
    endloop
  endfacet
  facet normal 0.000000e+000 -0.000000e+000 1.000000e+000
    outer loop
      vertex   -1.524000e+001 0.000000e+000 0.000000e+000
      vertex   0.000000e+000 0.000000e+000 0.000000e+000
      vertex   -1.320800e+001 2.819400e+000 0.000000e+000
    endloop
  endfacet
  facet normal -0.000000e+000 0.000000e+000 1.000000e+000
    outer loop
      vertex   -1.320800e+001 2.819400e+000 0.000000e+000
      vertex   0.000000e+000 0.000000e+000 0.000000e+000
      vertex   0.000000e+000 2.819400e+000 0.000000e+000
    endloop
  endfacet
  facet normal 1.000000e+000 0.000000e+000 0.000000e+000
    outer loop
      vertex   -8.890000e+000 1.489710e+001 -1.803400e+001
      vertex   -8.890000e+000 5.422900e+000 -1.803400e+001
      vertex   -8.890000e+000 1.489710e+001 -2.032000e+001
    endloop
  endfacet
  facet normal 1.000000e+000 0.000000e+000 0.000000e+000
    outer loop
      vertex   -8.890000e+000 1.489710e+001 -2.032000e+001
      vertex   -8.890000e+000 5.422900e+000 -1.803400e+001
      vertex   -8.890000e+000 5.422900e+000 -2.032000e+001
    endloop
  endfacet
  facet normal 1.000000e+000 0.000000e+000 0.000000e+000
    outer loop
      vertex   -1.320800e+001 1.750060e+001 0.000000e+000
      vertex   -1.320800e+001 2.819400e+000 0.000000e+000
      vertex   -1.320800e+001 1.750060e+001 -1.803400e+001
    endloop
  endfacet
  facet normal 1.000000e+000 0.000000e+000 0.000000e+000
    outer loop
      vertex   -1.320800e+001 1.750060e+001 -1.803400e+001
      vertex   -1.320800e+001 2.819400e+000 0.000000e+000
      vertex   -1.320800e+001 2.819400e+000 -1.803400e+001
    endloop
  endfacet
  facet normal -0.000000e+000 1.000000e+000 0.000000e+000
    outer loop
      vertex   -1.320800e+001 2.819400e+000 0.000000e+000
      vertex   0.000000e+000 2.819400e+000 0.000000e+000
      vertex   -1.320800e+001 2.819400e+000 -1.803400e+001
    endloop
  endfacet
  facet normal -0.000000e+000 1.000000e+000 0.000000e+000
    outer loop
      vertex   -1.320800e+001 2.819400e+000 -1.803400e+001
      vertex   0.000000e+000 2.819400e+000 0.000000e+000
      vertex   0.000000e+000 2.819400e+000 -1.803400e+001
    endloop
  endfacet
  facet normal 0.000000e+000 0.000000e+000 1.000000e+000
    outer loop
      vertex   0.000000e+000 1.750060e+001 -1.803400e+001
      vertex   -1.320800e+001 1.750060e+001 -1.803400e+001
      vertex   -8.890000e+000 1.489710e+001 -1.803400e+001
    endloop
  endfacet
  facet normal 0.000000e+000 -0.000000e+000 1.000000e+000
    outer loop
      vertex   0.000000e+000 1.489710e+001 -1.803400e+001
      vertex   0.000000e+000 1.750060e+001 -1.803400e+001
      vertex   -8.890000e+000 1.489710e+001 -1.803400e+001
    endloop
  endfacet
  facet normal 0.000000e+000 0.000000e+000 1.000000e+000
    outer loop
      vertex   0.000000e+000 2.819400e+000 -1.803400e+001
      vertex   -8.890000e+000 5.422900e+000 -1.803400e+001
      vertex   -1.320800e+001 2.819400e+000 -1.803400e+001
    endloop
  endfacet
  facet normal 0.000000e+000 -0.000000e+000 1.000000e+000
    outer loop
      vertex   0.000000e+000 2.819400e+000 -1.803400e+001
      vertex   0.000000e+000 5.422900e+000 -1.803400e+001
      vertex   -8.890000e+000 5.422900e+000 -1.803400e+001
    endloop
  endfacet
  facet normal 0.000000e+000 -0.000000e+000 1.000000e+000
    outer loop
      vertex   -8.890000e+000 5.422900e+000 -1.803400e+001
      vertex   -8.890000e+000 1.489710e+001 -1.803400e+001
      vertex   -1.320800e+001 2.819400e+000 -1.803400e+001
    endloop
  endfacet
  facet normal 0.000000e+000 -0.000000e+000 1.000000e+000
    outer loop
      vertex   -1.320800e+001 2.819400e+000 -1.803400e+001
      vertex   -8.890000e+000 1.489710e+001 -1.803400e+001
      vertex   -1.320800e+001 1.750060e+001 -1.803400e+001
    endloop
  endfacet
  facet normal -0.000000e+000 -1.000000e+000 -0.000000e+000
    outer loop
      vertex   0.000000e+000 1.750060e+001 0.000000e+000
      vertex   -1.320800e+001 1.750060e+001 0.000000e+000
      vertex   0.000000e+000 1.750060e+001 -1.803400e+001
    endloop
  endfacet
  facet normal -0.000000e+000 -1.000000e+000 -0.000000e+000
    outer loop
      vertex   0.000000e+000 1.750060e+001 -1.803400e+001
      vertex   -1.320800e+001 1.750060e+001 0.000000e+000
      vertex   -1.320800e+001 1.750060e+001 -1.803400e+001
    endloop
  endfacet
  facet normal -0.000000e+000 1.000000e+000 0.000000e+000
    outer loop
      vertex   -8.890000e+000 5.422900e+000 -1.803400e+001
      vertex   0.000000e+000 5.422900e+000 -1.803400e+001
      vertex   -8.890000e+000 5.422900e+000 -2.032000e+001
    endloop
  endfacet
  facet normal -0.000000e+000 1.000000e+000 0.000000e+000
    outer loop
      vertex   -8.890000e+000 5.422900e+000 -2.032000e+001
      vertex   0.000000e+000 5.422900e+000 -1.803400e+001
      vertex   0.000000e+000 5.422900e+000 -2.032000e+001
    endloop
  endfacet
  facet normal 1.000000e+000 -0.000000e+000 0.000000e+000
    outer loop
      vertex   0.000000e+000 1.750060e+001 0.000000e+000
      vertex   0.000000e+000 1.750060e+001 -1.803400e+001
      vertex   0.000000e+000 2.032000e+001 0.000000e+000
    endloop
  endfacet
  facet normal 1.000000e+000 0.000000e+000 0.000000e+000
    outer loop
      vertex   0.000000e+000 2.032000e+001 0.000000e+000
      vertex   0.000000e+000 1.750060e+001 -1.803400e+001
      vertex   0.000000e+000 2.032000e+001 -2.032000e+001
    endloop
  endfacet
  facet normal 1.000000e+000 0.000000e+000 0.000000e+000
    outer loop
      vertex   0.000000e+000 2.032000e+001 -2.032000e+001
      vertex   0.000000e+000 1.750060e+001 -1.803400e+001
      vertex   0.000000e+000 1.489710e+001 -2.032000e+001
    endloop
  endfacet
  facet normal 1.000000e+000 0.000000e+000 -0.000000e+000
    outer loop
      vertex   0.000000e+000 1.489710e+001 -2.032000e+001
      vertex   0.000000e+000 1.750060e+001 -1.803400e+001
      vertex   0.000000e+000 1.489710e+001 -1.803400e+001
    endloop
  endfacet
  facet normal 0.000000e+000 -1.000000e+000 0.000000e+000
    outer loop
      vertex   -8.890000e+000 1.489710e+001 -2.032000e+001
      vertex   0.000000e+000 1.489710e+001 -2.032000e+001
      vertex   -8.890000e+000 1.489710e+001 -1.803400e+001
    endloop
  endfacet
  facet normal 0.000000e+000 -1.000000e+000 0.000000e+000
    outer loop
      vertex   -8.890000e+000 1.489710e+001 -1.803400e+001
      vertex   0.000000e+000 1.489710e+001 -2.032000e+001
      vertex   0.000000e+000 1.489710e+001 -1.803400e+001
    endloop
  endfacet
  facet normal -0.000000e+000 1.000000e+000 0.000000e+000
    outer loop
      vertex   -1.524000e+001 2.032000e+001 0.000000e+000
      vertex   0.000000e+000 2.032000e+001 0.000000e+000
      vertex   -1.524000e+001 2.032000e+001 -2.032000e+001
    endloop
  endfacet
  facet normal -0.000000e+000 1.000000e+000 0.000000e+000
    outer loop
      vertex   -1.524000e+001 2.032000e+001 -2.032000e+001
      vertex   0.000000e+000 2.032000e+001 0.000000e+000
      vertex   0.000000e+000 2.032000e+001 -2.032000e+001
    endloop
  endfacet
  facet normal -1.000000e+000 0.000000e+000 -0.000000e+000
    outer loop
      vertex   -1.524000e+001 0.000000e+000 0.000000e+000
      vertex   -1.524000e+001 2.032000e+001 0.000000e+000
      vertex   -1.524000e+001 0.000000e+000 -2.032000e+001
    endloop
  endfacet
  facet normal -1.000000e+000 0.000000e+000 0.000000e+000
    outer loop
      vertex   -1.524000e+001 0.000000e+000 -2.032000e+001
      vertex   -1.524000e+001 2.032000e+001 0.000000e+000
      vertex   -1.524000e+001 2.032000e+001 -2.032000e+001
    endloop
  endfacet
  facet normal -0.000000e+000 -1.000000e+000 -0.000000e+000
    outer loop
      vertex   0.000000e+000 0.000000e+000 0.000000e+000
      vertex   -1.524000e+001 0.000000e+000 0.000000e+000
      vertex   0.000000e+000 0.000000e+000 -2.032000e+001
    endloop
  endfacet
  facet normal -0.000000e+000 -1.000000e+000 -0.000000e+000
    outer loop
      vertex   0.000000e+000 0.000000e+000 -2.032000e+001
      vertex   -1.524000e+001 0.000000e+000 0.000000e+000
      vertex   -1.524000e+001 0.000000e+000 -2.032000e+001
    endloop
  endfacet
  facet normal 1.000000e+000 0.000000e+000 0.000000e+000
    outer loop
      vertex   0.000000e+000 2.819400e+000 0.000000e+000
      vertex   0.000000e+000 0.000000e+000 0.000000e+000
      vertex   0.000000e+000 2.819400e+000 -1.803400e+001
    endloop
  endfacet
  facet normal 1.000000e+000 0.000000e+000 0.000000e+000
    outer loop
      vertex   0.000000e+000 2.819400e+000 -1.803400e+001
      vertex   0.000000e+000 0.000000e+000 0.000000e+000
      vertex   0.000000e+000 0.000000e+000 -2.032000e+001
    endloop
  endfacet
  facet normal 1.000000e+000 0.000000e+000 0.000000e+000
    outer loop
      vertex   0.000000e+000 5.422900e+000 -2.032000e+001
      vertex   0.000000e+000 2.819400e+000 -1.803400e+001
      vertex   0.000000e+000 0.000000e+000 -2.032000e+001
    endloop
  endfacet
  facet normal 1.000000e+000 0.000000e+000 -0.000000e+000
    outer loop
      vertex   0.000000e+000 5.422900e+000 -2.032000e+001
      vertex   0.000000e+000 5.422900e+000 -1.803400e+001
      vertex   0.000000e+000 2.819400e+000 -1.803400e+001
    endloop
  endfacet
  facet normal -0.000000e+000 -0.000000e+000 -1.000000e+000
    outer loop
      vertex   0.000000e+000 5.422900e+000 -2.032000e+001
      vertex   0.000000e+000 0.000000e+000 -2.032000e+001
      vertex   -8.890000e+000 5.422900e+000 -2.032000e+001
    endloop
  endfacet
  facet normal -0.000000e+000 -0.000000e+000 -1.000000e+000
    outer loop
      vertex   -8.890000e+000 5.422900e+000 -2.032000e+001
      vertex   0.000000e+000 0.000000e+000 -2.032000e+001
      vertex   -1.524000e+001 0.000000e+000 -2.032000e+001
    endloop
  endfacet
  facet normal -0.000000e+000 0.000000e+000 -1.000000e+000
    outer loop
      vertex   -8.890000e+000 1.489710e+001 -2.032000e+001
      vertex   -1.524000e+001 0.000000e+000 -2.032000e+001
      vertex   -1.524000e+001 2.032000e+001 -2.032000e+001
    endloop
  endfacet
  facet normal -0.000000e+000 0.000000e+000 -1.000000e+000
    outer loop
      vertex   0.000000e+000 2.032000e+001 -2.032000e+001
      vertex   -8.890000e+000 1.489710e+001 -2.032000e+001
      vertex   -1.524000e+001 2.032000e+001 -2.032000e+001
    endloop
  endfacet
  facet normal -0.000000e+000 -0.000000e+000 -1.000000e+000
    outer loop
      vertex   0.000000e+000 2.032000e+001 -2.032000e+001
      vertex   0.000000e+000 1.489710e+001 -2.032000e+001
      vertex   -8.890000e+000 1.489710e+001 -2.032000e+001
    endloop
  endfacet
  facet normal -0.000000e+000 0.000000e+000 -1.000000e+000
    outer loop
      vertex   -8.890000e+000 5.422900e+000 -2.032000e+001
      vertex   -1.524000e+001 0.000000e+000 -2.032000e+001
      vertex   -8.890000e+000 1.489710e+001 -2.032000e+001
    endloop
  endfacet
endsolid
